<?xml version="1.0" encoding="UTF-8"?>
<svg width="78px" height="72px" viewBox="0 0 78 72" version="1.1" xmlns="http://www.w3.org/2000/svg" xmlns:xlink="http://www.w3.org/1999/xlink">
    <title>28</title>
    <g stroke="none" stroke-width="1" fill="none" fill-rule="evenodd">
        <g transform="translate(9.000000, 5.000000)">
            <circle fill="#F0DEB1" cx="47.5" cy="16.5" r="16.5"></circle>
            <g transform="translate(0.000000, 7.000000)" fill="#D7BA71">
                <path d="M59,46 L24.686,46 L10.0413933,59.7133961 L10.041,46 L0,46 L0,0 L59,0 L59,46 Z M55,4 L4,4 L4,42 L14.1377857,42 L14.1377857,50.4301658 L22.9876628,42 L55,42 L55,4 Z M32,27 L32,31 L17,31 L17,27 L32,27 Z M42,16 L42,20 L17,20 L17,16 L42,16 Z"></path>
            </g>
        </g>
    </g>
</svg>