<svg xmlns="http://www.w3.org/2000/svg" viewBox="0 0 292.33 56.47"><defs><style>.cls-1{fill:none;}.cls-2{fill:#aaa;}</style></defs><g id="Layer_2" data-name="Layer 2"><g id="Layer_1-2" data-name="Layer 1"><rect class="cls-1" x="0.33" y="0.41" width="292" height="56"/><path class="cls-2" d="M61.8,4.73A59.43,59.43,0,0,0,46.75,0a43.33,43.33,0,0,0-1.93,4A55.52,55.52,0,0,0,28.14,4a43.48,43.48,0,0,0-1.95-4A59.14,59.14,0,0,0,11.13,4.74C1.6,19.13-1,33.17.31,47a60.21,60.21,0,0,0,18.46,9.45A45.5,45.5,0,0,0,22.72,50a37.66,37.66,0,0,1-6.22-3c.52-.38,1-.79,1.52-1.2a42.58,42.58,0,0,0,36.91,0c.5.41,1,.82,1.52,1.2a39,39,0,0,1-6.23,3,45.14,45.14,0,0,0,4,6.51A60.07,60.07,0,0,0,72.64,47,63.13,63.13,0,0,0,61.8,4.73ZM24.36,38.5c-3.61,0-6.56-3.37-6.56-7.46s2.89-7.47,6.56-7.47S31,26.93,30.92,31,28,38.5,24.36,38.5Zm24.23,0C45,38.5,42,35.13,42,31s2.9-7.47,6.56-7.47,6.62,3.36,6.56,7.47S52.26,38.5,48.59,38.5Z"/><path class="cls-2" d="M98.33,14.41h15.82a23,23,0,0,1,9.68,1.83,13,13,0,0,1,5.92,5.07,14.09,14.09,0,0,1,2,7.44,13.44,13.44,0,0,1-8.3,12.71A24.59,24.59,0,0,1,113,43.41H98.33Zm14.3,21a8.09,8.09,0,0,0,5.81-1.93,6.91,6.91,0,0,0,2-5.27,6.77,6.77,0,0,0-1.81-4.94q-1.82-1.86-5.48-1.86h-4.86v14Z"/><path class="cls-2" d="M154.32,43.34a21.41,21.41,0,0,1-6-2.56v-7a16.41,16.41,0,0,0,5.39,2.62,22.68,22.68,0,0,0,6.55,1,5,5,0,0,0,2.23-.39c.51-.27.76-.58.76-.95a1.47,1.47,0,0,0-.41-1.05,3.58,3.58,0,0,0-1.6-.71l-4.92-1.13q-4.23-1-6-2.79a6.29,6.29,0,0,1-1.78-4.67,6.27,6.27,0,0,1,1.56-4.23,9.9,9.9,0,0,1,4.43-2.78,20.59,20.59,0,0,1,6.72-1,24.55,24.55,0,0,1,6.32.76,17.34,17.34,0,0,1,4.76,1.92V27a17.83,17.83,0,0,0-4.45-1.87,19.63,19.63,0,0,0-5.2-.68c-2.57,0-3.85.44-3.85,1.34a1,1,0,0,0,.6.94,9.72,9.72,0,0,0,2.19.65l4.1.75a12,12,0,0,1,6,2.49,6.75,6.75,0,0,1,2,5.26A7,7,0,0,1,170.42,42q-3.27,2.24-9.25,2.24A26.92,26.92,0,0,1,154.32,43.34Z"/><path class="cls-2" d="M183,42.22a12.14,12.14,0,0,1-5.2-4.68A12.83,12.83,0,0,1,176,30.9a11.83,11.83,0,0,1,7.11-11.18,19.22,19.22,0,0,1,8.35-1.66c4,0,7.35.86,9.83,2.59v7.5a9.4,9.4,0,0,0-3.1-1.6,12.74,12.74,0,0,0-4-.61,10.49,10.49,0,0,0-5.84,1.39A4.22,4.22,0,0,0,186.28,31a4.27,4.27,0,0,0,2.05,3.64A10.42,10.42,0,0,0,194.27,36a13.39,13.39,0,0,0,4-.6c1.3-.39,2.42-.88,4.1-1.45v7.26a24.13,24.13,0,0,1-11,2.7A18.68,18.68,0,0,1,183,42.22Z"/><path class="cls-2" d="M211.52,42.22a12.35,12.35,0,0,1-7.13-11.4,12,12,0,0,1,1.83-6.59,12.3,12.3,0,0,1,5.28-4.54,21.5,21.5,0,0,1,16.47,0,12.32,12.32,0,0,1,5.26,4.51A12.21,12.21,0,0,1,235,30.81a12.76,12.76,0,0,1-1.81,6.69A12.46,12.46,0,0,1,228,42.21a20.42,20.42,0,0,1-16.43,0Zm12.2-7.28A5.39,5.39,0,0,0,225.19,31a5.26,5.26,0,0,0-1.47-3.92,5.41,5.41,0,0,0-4-1.46,5.48,5.48,0,0,0-4,1.46A5.25,5.25,0,0,0,214.23,31a5.1,5.1,0,0,0,5.5,5.45A5.32,5.32,0,0,0,223.72,34.94Z"/><path class="cls-2" d="M259.33,19.86v8.47a7.23,7.23,0,0,0-4.11-1.06,6.42,6.42,0,0,0-5.11,2.06q-1.79,2.05-1.78,6.38v7.7h-10v-24h10V27A12.66,12.66,0,0,1,251,20.87a6,6,0,0,1,4.66-2A6.84,6.84,0,0,1,259.33,19.86Z"/><path class="cls-2" d="M292.33,13.41v30h-10V38a9.67,9.67,0,0,1-3.85,4.69,11.93,11.93,0,0,1-6.39,1.61,10.34,10.34,0,0,1-5.92-1.69,11,11,0,0,1-3.9-4.62,15.62,15.62,0,0,1-1.37-6.65,14.94,14.94,0,0,1,1.45-6.88A11.21,11.21,0,0,1,272.74,18q7.14,0,9.59,6.34V13.41ZM280.55,34.78a5.21,5.21,0,0,0,1.51-3.88,5,5,0,0,0-1.46-3.73,5.48,5.48,0,0,0-4-1.44,5.43,5.43,0,0,0-4,1.46,5.07,5.07,0,0,0-1.49,3.8,5.11,5.11,0,0,0,1.49,3.81,5.35,5.35,0,0,0,3.93,1.48A5.47,5.47,0,0,0,280.55,34.78Z"/><path class="cls-2" d="M139.38,21.68a4.72,4.72,0,0,0,4.91-4.5,4.92,4.92,0,0,0-9.81,0A4.71,4.71,0,0,0,139.38,21.68Z"/><path class="cls-2" d="M134.33,24.94a12.85,12.85,0,0,0,10,0V43.41h-10Z"/></g></g></svg>