<svg xmlns="http://www.w3.org/2000/svg" viewBox="0 0 486.61 167.6"><defs><style>.cls-1{fill:#aaa;}</style></defs><g id="Layer_2" data-name="Layer 2"><g id="svg906"><g id="Artwork"><g id="g892"><g id="g884"><circle id="circle870" class="cls-1" cx="439.4" cy="57.7" r="10.6"/><path id="path872" class="cls-1" d="M288,102.9c5.2,0,8.2-3.9,8-7.7a28.28,28.28,0,0,0-.5-4.3c-3.2-13.8-14.4-24-27.7-24-15.8,0-28.6,14.3-28.6,31.9s12.8,31.9,28.6,31.9c9.9,0,17-3.6,22.1-9.3a6.19,6.19,0,0,0-1-9.2c-2.5-1.7-5.6-1.1-7.9.8s-6.4,5.7-13.2,5.7c-8,0-14.8-6.9-16.3-16H288ZM267.7,79c7.2,0,13.4,5.6,15.7,13.3H252C254.3,84.5,260.5,79,267.7,79Z"/><path id="path874" class="cls-1" d="M239.8,73.2a6,6,0,0,0-5-5.9c-8.7-1.3-16.9,1.9-21.6,7.8v-.8a6,6,0,0,0-6-6,6,6,0,0,0-6,6v49a6.13,6.13,0,0,0,5.6,6.2,6,6,0,0,0,6.4-6V98.2c0-11.2,8.4-20.4,20-19.1h1.2a5.89,5.89,0,0,0,5.4-5.9Z"/><path id="path876" class="cls-1" d="M445.4,79.6a6,6,0,0,0-12,0v43.9a6,6,0,0,0,12,0Z"/><path id="path878" class="cls-1" d="M356.2,46.4a6,6,0,0,0-6-6h0a6,6,0,0,0-6,6V73.1A20.73,20.73,0,0,0,328.9,67c-15.8,0-28.6,14.3-28.6,31.9s12.8,31.9,28.6,31.9a21,21,0,0,0,15.4-6.2,6,6,0,0,0,11.9-1.1V46.4ZM329,118.9c-9.2,0-16.6-8.9-16.6-20s7.4-20,16.6-20,16.6,8.9,16.6,20S338.1,118.9,329,118.9Z"/><path id="path880" class="cls-1" d="M418.8,46.4a6,6,0,0,0-6-6h0a6,6,0,0,0-6,6V73.1A20.73,20.73,0,0,0,391.5,67c-15.8,0-28.6,14.3-28.6,31.9s12.8,31.9,28.6,31.9a21,21,0,0,0,15.4-6.2,6,6,0,0,0,11.9-1.1Zm-27.3,72.5c-9.2,0-16.6-8.9-16.6-20s7.4-20,16.6-20,16.6,8.9,16.6,20S400.7,118.9,391.5,118.9Z"/><path id="path882" class="cls-1" d="M475.8,123.6V79h5.3a5.46,5.46,0,0,0,5.5-5,5.37,5.37,0,0,0-5.3-5.7h-5.5V59.9a6.13,6.13,0,0,0-5.6-6.2,6,6,0,0,0-6.4,6v8.7h-5a5.46,5.46,0,0,0-5.5,5,5.37,5.37,0,0,0,5.3,5.7h5.1v44.6a6,6,0,0,0,6,6h0a6.19,6.19,0,0,0,6.1-6.1Z"/></g><path class="cls-1" d="M101.4,112.4c-3.7,3.8-11.8,5.1-17.5,5.1s-13.7-1.3-17.5-5.1a2.26,2.26,0,0,0-3.2,3.2c5.9,5.9,17.3,6.4,20.7,6.4s14.7-.4,20.7-6.4a2.43,2.43,0,0,0,0-3.2A2.23,2.23,0,0,0,101.4,112.4Z"/><circle class="cls-1" cx="103" cy="92.6" r="8.7"/><path class="cls-1" d="M73.3,92.5a8.7,8.7,0,1,0-8.7,8.7A8.71,8.71,0,0,0,73.3,92.5Z"/><path class="cls-1" d="M83.8,0a83.8,83.8,0,1,0,83.8,83.8A83.8,83.8,0,0,0,83.8,0Zm48.7,95a23.08,23.08,0,0,1,.3,3.7c0,18.9-21.9,34.1-48.9,34.1S35,117.5,35,98.7a22.18,22.18,0,0,1,.3-3.7A12.2,12.2,0,1,1,48.8,75.1C57.3,69,69,65.1,82,64.7l6.2-29.2a1.94,1.94,0,0,1,.9-1.4,2.13,2.13,0,0,1,1.6-.3L111,38.1a8.65,8.65,0,1,1-.9,4.2L91.9,38.4,86.3,64.6C99.1,65.1,110.6,69,119,75a12.24,12.24,0,1,1,13.5,20Z"/></g></g></g></g></svg>