<svg xmlns="http://www.w3.org/2000/svg" viewBox="0 0 484.62 84.73"><defs><style>.cls-1{fill:#aaa;}</style></defs><g id="Layer_2" data-name="Layer 2"><g id="Layer_1-2" data-name="Layer 1"><g id="Layer_2-2" data-name="Layer 2"><g id="Layer_1-2-2" data-name="Layer 1-2"><path class="cls-1" d="M380.4,75.16a42.8,42.8,0,0,0,31.47-8.88c-.57,0-1.14-.08-1.7-.14A21.08,21.08,0,0,1,399.58,62a21.33,21.33,0,0,1-7.4-10.08c-.18-.51-.18-.51.35-.42a21.52,21.52,0,0,0,9-.43c0-.1-.15-.11-.24-.13a21.13,21.13,0,0,1-14.2-10.73,20.45,20.45,0,0,1-2.57-9.72c0-.69,0-.7.6-.39a21.68,21.68,0,0,0,8.26,2.32h.72a21.42,21.42,0,0,1-9.38-17,20.34,20.34,0,0,1,2.91-11.52q1.77,2.16,3.72,4.15a63.38,63.38,0,0,0,6,5.34,61.11,61.11,0,0,0,19.23,10.1,62.5,62.5,0,0,0,8.73,2,56.26,56.26,0,0,0,6.07.64c.33,0,.34-.08.29-.34-1.5-8,.7-14.86,6.66-20.42A20.07,20.07,0,0,1,449.71.21,21.09,21.09,0,0,1,466.31,5c.55.45,1.07,1,1.57,1.46a.71.71,0,0,0,.7.22,43.23,43.23,0,0,0,12.89-5l.29-.16a21.6,21.6,0,0,1-9.28,11.76,36.51,36.51,0,0,0,6.14-1.15,47,47,0,0,0,6-2.14A37.7,37.7,0,0,1,482,13.51a42.84,42.84,0,0,1-7.79,7.37.58.58,0,0,0-.29.55,33,33,0,0,1,0,4.22c0,1.39-.15,2.78-.29,4.16a60.87,60.87,0,0,1-1.4,8.13,63.11,63.11,0,0,1-9.43,21.13A58.37,58.37,0,0,1,441.26,78.2a58.93,58.93,0,0,1-16.85,5.59,65.25,65.25,0,0,1-13.82.88,60.42,60.42,0,0,1-30-9.34Z"/><g id="layer1"><g id="g4147"><path id="path4223" class="cls-1" d="M20.19,74.23A28.41,28.41,0,0,1,2.76,59.79C.13,54.49.14,54.53.13,30.17-.18,9.1,0,8.42,1.34,6.39A9.09,9.09,0,0,1,13.77,3.1a8.78,8.78,0,0,1,1.45,1.05c3,2.66,3.27,3.57,3.27,12.29V24H31.21c7.79,0,13.47.16,14.63.41A8.61,8.61,0,0,1,50.4,38.77a12,12,0,0,1-2.49,1.87c-1.45.78-2,.82-15.46.93l-14,.11V45c0,4.91.51,6.52,2.79,8.79,2.65,2.66,3.36,2.79,15.83,2.8,9.67,0,10.54.06,12.11.77A9.1,9.1,0,0,1,54,69.3a9.22,9.22,0,0,1-1.84,2.78c-2.56,2.84-2.73,2.87-16.91,2.85-11.06,0-12.86-.1-15.16-.71Zm56.66.16C71.09,73,65.14,68.61,61.5,63.08c-3.35-5.09-4-8.67-4-22,0-11.54.21-13,2.43-15.28,2.06-2.11,3.37-2.66,6.39-2.67,2.31,0,2.89.14,4.49,1.12a9.65,9.65,0,0,1,3,3c1.4,2.44,1.15,3.46,1.32,13.48.18,11.41.2,11.68,1.06,13.06a8.15,8.15,0,0,0,11.15,2.88,8.54,8.54,0,0,0,1.76-1.4c2.3-2.24,2.52-3.56,2.52-15.34,0-9.69,0-10.34.79-11.83a8.44,8.44,0,0,1,6.88-5,9.1,9.1,0,0,1,8.92,4.88c.8,1.48.84,2.08,1,13-.06,9.09.37,11.74,1.22,13a8.19,8.19,0,0,0,11.32,2.44,7.56,7.56,0,0,0,.79-.57c2.58-2.27,2.58-2.26,2.79-14.92.18-10.87.23-11.51,1-13a8.72,8.72,0,0,1,11.67-4,8.57,8.57,0,0,1,3.6,3.28c2.35,3.26,1.32,10.14,1.32,14.58.17,5.84-.17,13.34-1.2,15.64A26.74,26.74,0,0,1,125.3,73.92c-3.38,1.11-10.83,1.38-14.18.51a26.69,26.69,0,0,1-8.7-4l-2.23-1.57L98,70.44a25.86,25.86,0,0,1-8.43,4,37.43,37.43,0,0,1-12.67,0Zm77.84,0a11.66,11.66,0,0,1-4.77-4.49c-.82-1.52-.83-1.69-.83-20.84,0-18.42,0-19.36.74-20.78a9.29,9.29,0,0,1,15-2.64c2.84,2.84,2.84,2.77,2.71,24-.1,18.35-.12,18.72-.91,20.19A10.59,10.59,0,0,1,162,74.39a12.78,12.78,0,0,1-7.25,0Zm39.3-.16a28,28,0,0,1-18.64-16.92c-1.65-4.4-1.79-6.64-1.66-28.43.12-20.1.13-20.45.93-21.93,4-7.35,14.83-6.42,17.19,1.48.4,1.33.55,3.75.55,8.68v6.83l8.9.13c8.23.13,9,.2,10.4.94a8.67,8.67,0,0,1,.05,15.59c-1.45.78-2.11.84-10.48,1l-8.93.13.12,4.37c.15,5.11.73,6.64,3.26,8.58,2.22,1.7,3.61,2,10,2,5.11,0,5.8.09,7.52.89a9.21,9.21,0,0,1,0,16.77c-2.23,1-15.27,1-19.18,0Zm47.72,0a28.46,28.46,0,0,1-19.63-20.09c-.6-2.35-.67-4.73-.67-24,.14-20-.85-19.2,1-23.31C224.56,2.75,229,1,233.72,2.25c2,.55,5.26,3.85,5.8,5.81a61.39,61.39,0,0,1,.41,8.68V24h7.64c8.74,0,11.06.33,13.16,1.84,4.56,3.28,4.67,10.62.2,13.86-2.23,1.61-4.34,1.92-13.14,1.92H240V45c0,4.47.52,6.35,2.29,8.36,2.41,2.74,3.3,3,11,3.23,6.74.2,6.79.2,8.62,1.33a10.61,10.61,0,0,1,4.42,6.52,9.8,9.8,0,0,1-4.33,9.3l-1.56,1-8.09.08c-6.9.07-8.46,0-10.64-.62Zm46.78.17A27.06,27.06,0,0,1,275,66.29a24.44,24.44,0,0,1-6.95-18.06,25.39,25.39,0,0,1,2.56-11.69,20.87,20.87,0,0,1,7-8.64c8.86-6.33,24.62-6.72,34.55-.87a25.4,25.4,0,0,1,9.05,9.72c3.64,7.38,3.28,14.07-.89,16.25-1.44.75-2.11.78-17.33.88L287.19,54v1c0,1.54,2.44,3.61,5.13,4.37,1.83.51,4,.62,12.33.62a104.14,104.14,0,0,1,11.45.38c6.45,1.79,7.74,10.34,2.06,13.67-1.84,1.24-3,.93-14.7.92-9.74,0-13.56-.16-15-.53ZM305,41.15c-.7-2.36-2.73-3.76-6.43-4.45-3.93-.73-9.43.9-10.49,3.11-.47,1-.92,2.07-.92,2.07s3.28.11,9.09.11h9Zm28.28,33.1a10.44,10.44,0,0,1-4.48-5.3c-.28-1.07-.37-5.23-.28-12.86.14-11.12.16-11.33,1.17-14.36a26.65,26.65,0,0,1,18.05-16.82c3-.8,17.09-1.19,20.15-.55a8.38,8.38,0,0,1,7,8.34,8.44,8.44,0,0,1-4.64,7.89c-1.42.76-2.24.84-10.35,1-8.41.19-8.87.24-10.22,1.07a8.24,8.24,0,0,0-3.61,4.75,88.18,88.18,0,0,0-.41,11.26c0,9.76,0,9.76-1,11.72A8,8,0,0,1,342,73.57c-1.53,1.06-2.09,1.22-4.56,1.31-2.21.08-3.09-.06-4.15-.63Zm-179-56.84A9.15,9.15,0,0,1,150,5.22a9.32,9.32,0,0,1,2.23-2.94A8,8,0,0,1,158.28,0a8.83,8.83,0,0,1,8.29,5c4,7.77-4.5,16.31-12.34,12.4Z"/></g></g></g></g></g></g></svg>