<svg fill="none" height="104" viewBox="0 0 104 104" width="104" xmlns="http://www.w3.org/2000/svg"><path clip-rule="evenodd" d="m28.4246 8.66666c2.3932 0 4.3333 1.94014 4.3333 4.33334v2.3523h35.4921v-2.3523c0-2.3932 1.9401-4.33334 4.3333-4.33334s4.3333 1.94014 4.3333 4.33334v2.6159c7.4291 1.3739 13 7.9508 13 15.7698v47.9143c0 8.804-7.0631 16.0333-15.8889 16.0333h-46.2222c-8.8258 0-15.8889-7.2293-15.8889-16.0333v-47.9143c0-7.5266 5.1622-13.9023 12.1746-15.594v-2.7917c0-2.3932 1.9401-4.33334 4.3334-4.33334zm-.085 15.35234h-.5341c-3.9381 0-7.2222 3.2473-7.2222 7.3667v2.9094h60.6667v-2.9094c0-4.1194-3.2841-7.3667-7.2223-7.3667h-45.5181c-.0283.0005-.0566.0008-.085.0008s-.0568-.0003-.085-.0008zm52.9104 18.9428h-60.6667v36.3382c0 4.1194 3.2841 7.3667 7.2222 7.3667h46.2222c3.9382 0 7.2223-3.2473 7.2223-7.3667z" fill="#e3a849" fill-rule="evenodd"/></svg>