<svg fill="none" height="104" viewBox="0 0 104 104" width="104" xmlns="http://www.w3.org/2000/svg"><path clip-rule="evenodd" d="m63.3491 14.7333c-6.2304 0-11.9371 2.1927-16.4075 5.8526-1.8518 1.516-4.5819 1.2438-6.098-.6079-1.5161-1.8518-1.2439-4.582.6079-6.0981 5.9622-4.8812 13.5933-7.81325 21.8976-7.81325 19.1023 0 34.5879 15.48555 34.5879 34.58785 0 8.3006-2.9294 15.9285-7.8067 21.8895-1.5155 1.8523-4.2456 2.1253-6.0978.6098-1.8523-1.5155-2.1253-4.2456-.6098-6.0979 3.6569-4.4694 5.8476-10.1738 5.8476-16.4014 0-14.3159-11.6053-25.9212-25.9212-25.9212zm-22.698 22.6909c-14.3159 0-25.9212 11.6053-25.9212 25.9212s11.6053 25.9212 25.9212 25.9212 25.9212-11.6053 25.9212-25.9212-11.6053-25.9212-25.9212-25.9212zm-34.58787 25.9212c0-19.1023 15.48547-34.5878 34.58787-34.5878s34.5879 15.4855 34.5879 34.5878c0 19.1024-15.4855 34.5879-34.5879 34.5879s-34.58787-15.4855-34.58787-34.5879z" fill="#e3a849" fill-rule="evenodd"/></svg>