<svg fill="none" height="32" viewBox="0 0 32 32" width="32" xmlns="http://www.w3.org/2000/svg"><path clip-rule="evenodd" d="m22.6666 5.33317c1.4728-.00002 2.6667 1.1939 2.6667 2.66667v9.50006c0 .7364.597 1.3334 1.3334 1.3334.7363 0 1.3333-.597 1.3333-1.3334v-9.50006c0-2.94555-2.3879-5.33337-5.3334-5.33334l-9.5.00011c-.7363.00001-1.3333.59697-1.3333 1.33335s.597 1.33333 1.3334 1.33332zm.3334 6.66673c0-2.39319-1.9401-4.33329-4.3333-4.33329h-9.00004c-2.39323 0-4.33333 1.9401-4.33333 4.33329v13.0001c0 2.3932 1.9401 4.3333 4.33334 4.3333h9.00003c2.3932 0 4.3333-1.9401 4.3333-4.3334zm-4.3333-1.6666c.9204 0 1.6666.7462 1.6666 1.6666v13c0 .9205-.7462 1.6667-1.6666 1.6667h-9.00003c-.92048 0-1.66667-.7462-1.66667-1.6666v-13.0001c0-.9204.74619-1.6666 1.66666-1.6666z" fill="#fff" fill-rule="evenodd"/></svg>