<svg width="24" height="24" viewBox="0 0 24 24" fill="none" xmlns="http://www.w3.org/2000/svg">
<path d="M8.55432 3.00015C8.59644 3.00065 8.63964 3.00258 8.68256 3.00572C10.392 3.28149 11.3319 4.97089 11.4681 6.46065C11.6671 7.81247 11.0297 9.54995 9.44156 9.85286C9.21121 9.89385 8.97185 9.87512 8.74668 9.81802C6.83432 9.2187 5.97852 7.10188 6.25495 5.34849C6.3353 4.21605 7.24869 2.98458 8.55432 3.00015ZM15.8014 3.07262C16.8643 3.097 17.6922 4.10454 17.8607 5.05164C18.2157 6.92806 17.3025 9.25951 15.2109 9.85286C15.015 9.89268 14.8123 9.89678 14.6144 9.86819C13.2007 9.64799 12.6018 8.16662 12.661 6.97073C12.7035 5.3932 13.5803 3.56913 15.3331 3.12558C15.4934 3.08587 15.6495 3.06913 15.8014 3.07262ZM3.92277 8.40204C5.76152 8.50486 7.02213 10.2196 7.20184 11.8207C7.44518 12.9755 6.78646 14.5201 5.37665 14.6123C3.41086 14.5896 2.0698 12.6264 2.01408 10.9371C1.88974 9.81991 2.59389 8.46373 3.92277 8.40204ZM20.0169 8.78251C20.7992 8.77622 21.5685 9.21417 21.8242 9.95738C22.5062 11.9455 21.1366 14.4635 18.8836 14.8812C17.9433 15.0316 17.1171 14.3567 16.884 13.5447C16.3899 11.8079 17.4047 9.79114 19.1222 9.00272C19.402 8.85595 19.7108 8.78498 20.0169 8.78251ZM11.7737 12.3475C13.3073 12.3506 14.865 13.078 15.858 14.1607C16.9306 15.4227 17.8092 16.8913 18.1529 18.4839C18.5705 19.6304 17.6241 20.9497 16.3128 20.9577C14.7354 20.9986 13.3796 19.9862 11.811 19.911C10.4802 19.7214 9.28854 20.3684 8.09206 20.7918C7.07333 21.1991 5.66563 21.043 5.14552 20.0183C4.73642 18.9739 5.33858 17.8603 5.83742 16.9327C6.85486 15.4273 7.94486 13.845 9.61305 12.905C10.2817 12.5177 11.0248 12.346 11.7737 12.3475Z" fill="#E3A849"/>
</svg>
