<svg width="731" height="145" viewBox="0 0 731 145" fill="none" xmlns="http://www.w3.org/2000/svg">
<path d="M51.7578 21.4709L47.7028 22.2216C44.4169 22.8331 41.0341 21.967 38.443 19.8645L35.2416 17.2636C35.1229 17.1676 34.9531 17.1539 34.8238 17.2351C34.6945 17.3163 34.6215 17.4684 34.6516 17.6195L35.4022 21.6745C36.0137 24.9604 35.1476 28.3432 33.0452 30.9343L30.4442 34.1357C30.3483 34.2544 30.3346 34.4243 30.4158 34.5535C30.497 34.6828 30.6491 34.7559 30.8002 34.7257L34.8552 33.9751C38.1411 33.3636 41.5239 34.2297 44.115 36.3322L47.3164 38.9331C47.4351 39.0291 47.6049 39.0427 47.7342 38.9615C47.8635 38.8804 47.9365 38.7283 47.9064 38.5772L47.1558 34.5222C46.5443 31.2363 47.4104 27.8535 49.5128 25.2623L52.1138 22.061C52.2097 21.9422 52.2234 21.7724 52.1422 21.6431C52.061 21.5139 51.9089 21.4408 51.7578 21.4709Z" fill="#FF46CE"/>
<path d="M712.758 85.9202L708.703 86.6708C705.417 87.2823 702.034 86.4162 699.443 84.3137L696.242 81.7128C696.123 81.6168 695.953 81.6032 695.824 81.6844C695.695 81.7655 695.621 81.9176 695.652 82.0687L696.402 86.1237C697.014 89.4096 696.148 92.7924 694.045 95.3836L691.444 98.5849C691.348 98.7037 691.335 98.8735 691.416 99.0028C691.497 99.132 691.649 99.2051 691.8 99.175L695.855 98.4243C699.141 97.8128 702.524 98.6789 705.115 100.781L708.316 103.382C708.435 103.478 708.605 103.492 708.734 103.411C708.863 103.33 708.936 103.177 708.906 103.026L708.156 98.9714C707.544 95.6855 708.41 92.3027 710.513 89.7116L713.114 86.5102C713.21 86.3915 713.223 86.2216 713.142 86.0923C713.061 85.9631 712.909 85.89 712.758 85.9202Z" fill="#FF7D47"/>
<path d="M31.964 63.0744L29.9873 61.6275C28.3842 60.4563 27.3802 58.6412 27.2333 56.6646L27.0531 54.2211C27.0462 54.1307 26.9829 54.0517 26.8952 54.0289C26.8074 54.0061 26.7119 54.0365 26.6589 54.1111L25.212 56.0877C24.0408 57.6909 22.2257 58.6948 20.2491 58.8418L17.8056 59.0219C17.7151 59.0288 17.6362 59.0921 17.6134 59.1799C17.5906 59.2676 17.621 59.3631 17.6956 59.4162L19.6722 60.8631C21.2753 62.0342 22.2793 63.8493 22.4262 65.826L22.6064 68.2695C22.6133 68.3599 22.6766 68.4389 22.7643 68.4617C22.8521 68.4845 22.9476 68.4541 23.0007 68.3795L24.4476 66.4028C25.6187 64.7997 27.4338 63.7958 29.4104 63.6488L31.854 63.4687C31.9444 63.4618 32.0233 63.3985 32.0461 63.3107C32.0689 63.2229 32.0385 63.1274 31.964 63.0744Z" fill="#FFFC36"/>
<path d="M692.964 127.524L690.987 126.077C689.384 124.906 688.38 123.09 688.233 121.114L688.053 118.67C688.046 118.58 687.983 118.501 687.895 118.478C687.807 118.455 687.712 118.486 687.659 118.56L686.212 120.537C685.041 122.14 683.226 123.144 681.249 123.291L678.806 123.471C678.715 123.478 678.636 123.541 678.613 123.629C678.591 123.717 678.621 123.812 678.696 123.865L680.672 125.312C682.275 126.483 683.279 128.299 683.426 130.275L683.606 132.719C683.613 132.809 683.677 132.888 683.764 132.911C683.852 132.934 683.948 132.903 684.001 132.829L685.448 130.852C686.619 129.249 688.434 128.245 690.41 128.098L692.854 127.918C692.944 127.911 693.023 127.848 693.046 127.76C693.069 127.672 693.039 127.577 692.964 127.524Z" fill="#2BF9FF"/>
<path d="M730.663 138.779L728.686 137.333C727.083 136.161 726.079 134.346 725.932 132.37L725.752 129.926C725.745 129.836 725.682 129.757 725.594 129.734C725.506 129.711 725.411 129.742 725.358 129.816L723.911 131.793C722.74 133.396 720.924 134.4 718.948 134.547L716.504 134.727C716.414 134.734 716.335 134.797 716.312 134.885C716.289 134.973 716.32 135.068 716.394 135.121L718.371 136.568C719.974 137.739 720.978 139.554 721.125 141.531L721.305 143.975C721.312 144.065 721.375 144.144 721.463 144.167C721.551 144.19 721.646 144.159 721.699 144.085L723.146 142.108C724.317 140.505 726.133 139.501 728.109 139.354L730.553 139.174C730.643 139.167 730.722 139.104 730.745 139.016C730.768 138.928 730.737 138.833 730.663 138.779Z" fill="#9780FF"/>
<path d="M14.9308 9.62517L12.9541 8.17827C11.351 7.00713 10.347 5.19202 10.2001 3.21539L10.0199 0.771866C10.013 0.681456 9.94973 0.602477 9.86197 0.579683C9.77421 0.556889 9.67871 0.587283 9.62566 0.66187L8.17876 2.63851C7.00761 4.24165 5.19251 5.2456 3.21588 5.39255L0.772355 5.5727C0.681944 5.5796 0.602965 5.64289 0.580171 5.73066C0.557377 5.81842 0.587771 5.91392 0.662359 5.96696L2.639 7.41387C4.24214 8.58501 5.24608 10.4001 5.39304 12.3767L5.57318 14.8203C5.58009 14.9107 5.64338 14.9897 5.73114 15.0125C5.8189 15.0352 5.9144 15.0049 5.96745 14.9303L7.41435 12.9536C8.5855 11.3505 10.4006 10.3465 12.3772 10.1996L14.8208 10.0194C14.9112 10.0125 14.9901 9.94924 15.0129 9.86148C15.0357 9.77372 15.0053 9.67822 14.9308 9.62517Z" fill="#62FF46"/>
</svg>
