<svg fill="none" height="104" viewBox="0 0 104 104" width="104" xmlns="http://www.w3.org/2000/svg"><path clip-rule="evenodd" d="m52 14.7333c-15.5873 0-28.2232 12.636-28.2232 28.2232 0 4.4169 1.6834 9.5643 4.5833 15.0421 2.8705 5.422 6.7504 10.8286 10.7154 15.6748 3.9536 4.8321 7.9192 9.0192 10.9016 12.0016.7419.7419 1.4214 1.4077 2.0229 1.9886.6014-.5809 1.2809-1.2467 2.0228-1.9886 2.9824-2.9824 6.948-7.1695 10.9016-12.0016 3.9651-4.8462 7.8449-10.2528 10.7154-15.6748 2.9-5.4778 4.5834-10.6252 4.5834-15.0421 0-15.5872-12.636-28.2232-28.2232-28.2232zm0 78.8667c-2.8789 3.2388-2.8797 3.2381-2.8805 3.2374l-.0091-.0081-.0225-.0201-.0795-.0714c-.0682-.0613-.1664-.15-.2925-.2649-.2523-.2298-.6166-.5648-1.0769-.9959-.9204-.862-2.2266-2.1102-3.7901-3.6737-3.1219-3.122-7.2955-7.5262-11.481-12.6419-4.1741-5.1016-8.4334-10.9994-11.6672-17.1078-3.2044-6.0527-5.5906-12.6618-5.5906-19.0971 0-20.3737 16.5162-36.88982 36.8899-36.88982s36.8898 16.51612 36.8898 36.88982c0 6.4353-2.3862 13.0444-5.5905 19.0971-3.2339 6.1084-7.4932 12.0062-11.6673 17.1078-4.1855 5.1157-8.359 9.5199-11.4809 12.6419-1.5636 1.5635-2.8697 2.8117-3.7901 3.6737-.4604.4311-.8247.7661-1.077.9959-.1261.1149-.2242.2036-.2924.2649l-.0796.0714-.0225.0201-.0068.006c-.0008.0008-.0038.0035-2.8827-3.2353zm0 0 2.8789 3.2388-2.8789 2.559-2.8805-2.5604zm.0013-58.066c-3.3505 0-6.0667 2.7161-6.0667 6.0667 0 3.3505 2.7162 6.0666 6.0667 6.0666s6.0667-2.7161 6.0667-6.0666c0-3.3506-2.7162-6.0667-6.0667-6.0667zm-14.7333 6.0667c0-8.137 6.5963-14.7334 14.7333-14.7334s14.7333 6.5964 14.7333 14.7334-6.5963 14.7333-14.7333 14.7333-14.7333-6.5963-14.7333-14.7333z" fill="#e3a849" fill-rule="evenodd"/></svg>