<svg width="45" height="18" viewBox="0 0 45 18" fill="none" xmlns="http://www.w3.org/2000/svg">
<path d="M3.51468 17.0102C2.67719 17.5815 1.52649 17.4361 0.859571 16.6439C0.148344 15.7989 0.256515 14.537 1.10147 13.8257L2.41683 12.7316C8.93073 7.38223 14.5045 3.86479 20.5269 1.97932C26.5694 0.0876324 32.8882 -0.106727 40.8028 0.885321L42.4071 1.09863C43.5008 1.253 44.2629 2.26523 44.1086 3.35891C43.9542 4.45258 42.942 5.21466 41.8483 5.06038L40.3043 4.85404C32.714 3.90293 27.0233 4.13682 21.7214 5.79674C16.0446 7.57406 10.6128 11.048 3.67728 16.8866L3.51468 17.0102Z" fill="#2BF9FF"/>
</svg>
