<svg width="50" height="39" viewBox="0 0 50 39" fill="none" xmlns="http://www.w3.org/2000/svg">
<path d="M0.106786 7.3989C-0.193404 6.40783 0.313112 5.36491 1.24863 4.97453L1.44149 4.90535L16.9547 0.206359C17.5923 0.0132312 18.2838 0.150299 18.7997 0.571877C19.3155 0.993455 19.5876 1.6442 19.5253 2.30749L17.9449 19.1358L35.0093 16.0616C35.6246 15.9509 36.2561 16.1344 36.7165 16.5574C37.1769 16.9805 37.4136 17.5946 37.3551 18.2171L35.8208 34.5554L47.4735 33.7292C48.575 33.6514 49.5311 34.4811 49.6093 35.5826C49.6875 36.6844 48.8577 37.6413 47.7559 37.7194L33.7502 38.7121C33.164 38.7536 32.5888 38.5354 32.178 38.1152C31.7674 37.6949 31.5627 37.1154 31.6177 36.5304L33.1264 20.4654L16.0621 23.5386C15.4468 23.6494 14.8153 23.4658 14.3549 23.0428C13.8945 22.6197 13.6578 22.0056 13.7163 21.3831L15.2645 4.89798L2.60034 8.7336L2.4025 8.7827C1.40747 8.97728 0.407031 8.39009 0.106786 7.3989Z" fill="#FF46CE"/>
</svg>
