<svg fill="none" height="119" viewBox="0 0 121 119" width="121" xmlns="http://www.w3.org/2000/svg"><g fill="#fffc36"><path d="m88.4375 60.7978c-.7859-4.1312-2.4856-7.8419-5.0444-11.0591-2.4126-3.0344-5.5927-5.6301-9.4674-7.7505-2.7233-1.4807-5.5928-2.2301-8.5719-2.2301-.9504 0-1.9008.073-2.8512.2376-4.094.658-7.8408 2.1752-11.1123 4.4785-4.2768 2.9978-7.0366 6.8914-8.2612 11.5344-1.7911 6.9279-.0183 12.6129 5.282 16.9269 1.2429 1.0054 2.7781 1.9011 4.7155 2.7419 2.3211 1.0054 4.5692 1.4989 6.7076 1.4989 3.9661 0 7.6214-1.7365 10.8382-5.1548 1.9373-2.0656 2.906-4.6247 2.7415-7.2387-.1828-2.7054-1.5535-5.2463-3.8747-7.1474-1.517-1.2247-3.235-1.8279-5.2455-1.8279-.8224 0-1.6997.0914-2.6684.2925-1.0235.2011-1.8277 1.2247-1.8459 2.3215-.0183 1.115.8041 2.0656 1.919 2.2484.3656.0548.7677.0914 1.188.0914.3656 0 .7677-.0183 1.1698-.0731.0731 0 .1462-.0183.201-.0183 1.0235 0 2.175.8408 2.9791 2.1935.8956 1.4989 1.1332 3.1624.5849 4.1495-1.7546 3.2355-5.5196 5.1548-8.1698 5.1548-.2193 0-.4203-.0183-.6214-.0365-4.3499-.5667-8.0601-2.8517-9.9244-6.1237-1.7545-3.0892-1.7911-6.7817-.1096-10.657 2.3212-5.3194 6.6345-8.6462 13.2142-10.1817 1.0601-.2376 2.1201-.3656 3.1436-.3656 2.5405 0 4.9896.7312 7.2742 2.1753 4.7337 2.9796 8.0418 7.1839 10.0889 12.8322.5483 1.5355.7493 3.2721.859 4.7893.2741 3.8387-.6215 7.7688-2.7416 12.0462-.8955 1.7914-1.9008 3.2172-3.0157 4.2409-3.9112 3.6011-8.4622 6.0871-13.5249 7.3666-1.8642.4753-3.7833.713-5.7389.713-3.235 0-6.598-.6215-10.2899-1.9194-4.0209-1.4075-6.8721-3.4548-8.7181-6.2516-2.4673-3.7656-4.1854-7.3484-5.2454-10.9129-1.188-4.0215-1.517-7.9699-1.0053-12.0646.5483-4.3871 1.7729-8.4085 3.6371-11.9365.8408-1.5903 2.1202-3.2172 3.7103-4.6979 2.5222-2.3763 5.4465-4.4236 8.6998-6.087 3.5091-1.8097 7.2924-2.7054 11.2768-2.7054.7493 0 1.517.0365 2.3029.0914.53.0365 1.0783.1096 1.6083.1645.7311.0731 1.4805.1645 2.2298.2011.2193.0183.4935.0365.7494.0365.5483 0 .9504-.0731 1.2976-.2193.6215-.2742 1.2063-.8774 1.4439-1.4624.3473-.8774.0366-1.8462-.8042-2.4677-.3472-.2559-.7859-.4387-1.188-.5119-2.8877-.5483-5.4465-.8042-7.8408-.8042-1.6814 0-3.3263.1279-4.8799.4021-7.0366 1.1699-13.397 4.7161-20.0315 11.1322-1.4804 1.4258-2.577 3.2904-3.564 5.1001-2.7598 5.0634-4.0757 10.8032-4.1305 18.0236-.0914 3.8935.6031 7.6957 1.9739 11.0043.1096.2925.2376.5667.3472.8592.8042 1.9376 1.645 3.9484 2.6136 5.8494 3.2168 6.2151 8.2064 10.3645 14.8592 12.357 3.7284 1.115 7.5666 1.6634 11.6972 1.6634h.1645c8.0418-.0365 15.3708-3.0526 21.7677-9.0118 6.5614-6.0871 9.0471-14.386 7.2011-24.0011z"/><path d="m97.8867 76.4634c-.2742 0-.6763.0183-.987.2377-.4569.3107-1.0783.8043-1.3708 1.4258-.1644.3473-.1096.8043.1097 1.243.2742.5484.7676.9505 1.2611 1.0419 1.2611.2376 2.7415.4936 4.2033.6032 3.309.2377 6.69.4387 9.943.6215 1.151.0732 2.321.128 3.473.2011v.128h.365.585.585.731.164c.183 0 .384 0 .585.0183.201 0 .402.0182.603.0182.403 0 .914-.0183 1.408-.1462.639-.1828 1.334-.9505 1.444-1.572.091-.6398-.384-1.4807-.896-1.8828-.475-.3839-1.206-.6581-1.974-.7129-6.47-.4205-12.848-.7861-19.9033-1.1699-.0731-.0549-.2011-.0549-.329-.0549z"/><path d="m105.417 32.3182 1.316-.9322.219-.1462c.567-.4022 1.133-.8043 1.627-1.3162.292-.3107.42-.7312.511-1.0236.019-.0731.037-.1462.055-.1645l.037-.0732v-.0914c-.073-1.1699-.951-2.1387-1.992-2.1387-.128 0-.256.0183-.384.0366-.932.2193-1.81.6032-2.522 1.0968-2.998 2.0655-5.9953 4.2226-8.9196 6.2882-.5665.4021-1.1331.8042-1.6997 1.2064-.6031.4204-1.0966.8226-1.517 1.2247-1.06.9871-.8773 1.9011-.53 2.486.4204.7129 1.0966 1.1517 1.8277 1.1517.1645 0 .3472-.0183.5117-.0731.8408-.2194 1.6998-.6398 2.4857-1.1882 2.9974-2.0839 6.0312-4.2409 8.9742-6.3431z"/><path d="m81.3644 114.869c-1.8826-2.925-3.8564-5.831-5.5379-8.336-.3473-.512-.7859-1.17-1.3891-1.535-.6762-.421-1.4987-.695-2.2663-.768-.0366 0-.0914 0-.1279 0-.5118 0-1.0053.274-1.3525.75-.3473.493-.457 1.096-.2925 1.608.1462.439.329.804.5301 1.115l.7859 1.17c1.8642 2.742 3.8016 5.594 5.7389 8.354.4569.64 1.1149 1.225 1.8094 1.59.2376.128.5118.183.7859.183.9687 0 2.0288-.841 2.0836-2.194v-.073l-.0366-.073c-.0365-.091-.0731-.201-.1279-.347-.1097-.384-.2924-.951-.6031-1.444z"/><path d="m1.14708 88.0161c.20105.1645.38383.3291.58488.4936l.16449.1645.21932-.0914c.32898-.1463.65797-.2742.98695-.3839.67625-.2559 1.31593-.5118 1.93735-.8409 2.48566-1.3526 4.98963-2.7602 7.42043-4.1312l.9321-.53c.5483-.3108 1.1332-.6581 1.6449-1.0785.8225-.6946 1.0418-1.5904.6032-2.4861-.3656-.7677-1.0966-1.2247-1.9191-1.2247-.1097 0-.2376.0183-.3473.0366-.8042.1279-1.5718.5118-2.2297.8774-2.85124 1.572-5.75728 3.1989-8.53537 4.7709l-.47519.256c-.07311.0548-.1645.0914-.25588.1462-.38382.2011-.82246.4387-1.114888.8226-.639691.8591-.877295 1.5172-.7128033 1.9742.2010453.4752.6396913.8409 1.0966113 1.2247z"/><path d="m63.8003 2.26665c.0182-1.0785-.7859-2.010745-1.9191-2.2300998-.1279-.0182796-.2376-.0365502-.3655-.0365502-1.0418 0-2.0471.822563-2.3395 1.90106-.0731.29247-.1279.56666-.1462.82258-.0548.78602-.1097 1.59032-.1645 2.37634-.1828 2.5957-.3655 5.28282-.53 7.93332-.0914 1.5538.7859 2.6871 2.1932 2.8333.0914 0 .1828.0183.2559.0183 1.2611 0 2.1018-.914 2.3029-2.486.201-1.4258.2924-2.8699.4021-4.27741.0365-.60323.0913-1.22473.1462-1.82796l.0365-.36559-.1096-.0183c.0182-.36559.0365-.74946.0731-1.09677.0731-1.18817.1462-2.37633.1645-3.54622z"/><path d="m29.5494 24.3301c.6762 0 1.2976-.2742 1.7728-.786.3656-.4022 1.0601-1.499-.3289-2.8699-2.6868-2.6871-5.4831-5.4108-8.5171-8.2989-.3472-.3291-.7859-.4936-1.2428-.6764-.2011-.0731-.4204-.1645-.6214-.2559l-.2011-.0914-.1827.1462c-.1645.128-.329.2376-.4935.3473-.4021.2742-.8042.5484-1.0601.9689-.2924.4752-.1645 1.2247.0366 1.7365.201.5118.6031.9506 1.0052 1.3344 2.4674 2.4129 4.9165 4.8076 7.4204 7.2205.3107.3107.6397.5666.9504.7677.4387.2925.9687.457 1.4622.457z"/><path d="m38.0298 100.903c-.3107 0-.7493.037-1.1331.256-.6763.366-1.1332 1.152-1.3342 1.59-1.2611 2.688-2.504 5.448-3.692 8.117l-.2741.621c-.1462.347-.2559.731-.3473 1.188-.0914.549.0731 1.097.4387 1.554.4569.548 1.188.896 2.0104.914h.0914l.0731-.037c.0366-.018.1097-.036.1828-.073.2741-.091.6762-.237 1.0052-.511.3655-.311.6945-.768.9687-1.371 1.4073-3.053 2.7963-6.124 3.9661-8.738.1645-.384.2924-.804.3472-1.207.128-1.023-.4021-1.882-1.3525-2.193-.3107-.073-.6214-.11-.9504-.11z"/><path d="m2.8103 44.6022c.51175.4204 1.20626.7311 1.8825.8225 2.22978.3473 4.49611.6398 6.6893.9323.7677.1096 1.517.201 2.2664.3107h.0731c.2376-.0183.4569-.0365.6762-.0365.4752-.0183.9321-.0366 1.3708-.128 1.0966-.2011 1.7363-1.0054 1.6084-1.9742-.0731-.6398-.5849-1.2065-1.0418-1.7-.2559-.2559-.6762-.4204-1.2794-.4935-3.3081-.3839-6.56139-.7678-9.85123-1.0968-.14622-.0183-.31071-.0183-.45693-.0183-.40209 0-1.02352.0549-1.5901.3108-.49348.2193-.96867.8774-1.0235 1.444-.03655.5484.25589 1.2796.67626 1.627z"/></g></svg>