<svg width="24" height="24" viewBox="0 0 24 24" fill="none" xmlns="http://www.w3.org/2000/svg">
<path fill-rule="evenodd" clip-rule="evenodd" d="M4.10248 13.7327V20.8959H12.1869C14.119 20.8959 15.8223 20.5315 17.2969 19.8027C18.7714 19.057 19.9239 18.0231 20.7543 16.7011C21.5848 15.3622 22.0001 13.7945 22.0001 11.9979C22.0001 10.1845 21.5848 8.61673 20.7543 7.29475C19.9239 5.97277 18.7714 4.94739 17.2969 4.2186C15.8223 3.47287 14.119 3.10001 12.1869 3.10001H4.10248V10.1735H2V13.7327H4.10248ZM8.22096 13.7327V17.5147H11.9835C13.1699 17.5147 14.1953 17.2943 15.0597 16.8537C15.941 16.3961 16.6189 15.752 17.0935 14.9216C17.585 14.0911 17.8307 13.1165 17.8307 11.9979C17.8307 10.8624 17.585 9.88786 17.0935 9.07434C16.6189 8.24386 15.941 7.6083 15.0597 7.16764C14.1953 6.71003 13.1699 6.48122 11.9835 6.48122H8.22096V10.1735H11.7877V13.7327H8.22096Z" fill="currentColor"/>
</svg>
