<svg fill="none" height="163" viewBox="0 0 167 163" width="167" xmlns="http://www.w3.org/2000/svg"><g fill="#ff46ce"><path d="m99.4973 41.2607c-3.2204.5007-6.3113 1.4859-9.146 2.9204-.8297.4198-1.6591.8974-2.4768 1.398-2.2919 1.4203-5.2163 3.4212-7.5256 6.0083-2.0794 2.3549-3.4417 4.9259-4.1552 7.8633-.1389-.0455-.2777-.091-.4049-.1135-.9715-.261-1.7812-.4881-2.66-.6803-5.6081-1.1858-10.4573-.7004-14.8361 1.5154-.3687.1866-.7489.4079-1.106.6176-4.2849 2.5157-7.851 5.5939-10.5485 9.1301-2.4334 3.1999-3.8253 6.799-4.1066 10.7624-.8228 11.4167 5.5565 26.4256 18.9468 31.7206 8.761 3.47 16.6865 6.146 24.2397 8.258 5.5867 1.544 11.691 2.624 18.6709 3.318 1.676.165 3.073-.05 4.225-.633 1.268-.641 2.302-1.743 3.16-3.365 3.378-6.312 6.349-12.91 9.195-19.3 1.245-2.8015 2.537-5.684 3.851-8.5204 1.589-3.4383 2.763-6.8401 3.498-10.1935 1.741-7.8286 1.265-15.4617-1.366-22.0332-2.619-6.5485-7.358-12.0241-13.707-15.8747-4.298-2.6015-8.923-3.561-13.7477-2.7985zm-46.4561 53.3828c-1.5844-2.7878-2.582-6.0751-3.0288-10.1043-.6035-5.3685 1.1074-9.8817 5.0869-13.4587 1.8748-1.6724 3.911-3.4264 6.1926-4.581 1.7285-.8747 3.4358-1.3334 5.226-1.3998 3.6841-.1564 7.0611.6822 10.0613 2.4351.9499.5614 2.0961 1.1103 3.5622.9184.5426-.0719 1.0271-.2013 1.488-.4345 1.4289-.7231 2.1153-2.1125 1.8995-3.7402-.6453-4.4788 1.1397-7.9874 5.8134-11.3367 1.508-1.0816 2.9247-1.9432 4.3305-2.6546 2.2355-1.1312 4.4038-1.8232 6.6432-2.1459 2.886-.4182 5.522.0427 7.815 1.3716 4.448 2.5545 7.86 5.8071 10.142 9.6311 2.283 3.824 3.541 8.3692 3.669 13.4858.141 5.1396-.84 10.1229-2.954 14.8691-1.063 2.3616-2.103 4.7693-3.12 7.1075-3.05 7.0146-6.203 14.2846-9.994 21.0946l-.046.081c-.297.556-.595 1.054-.722 1.147-.15.047-.82-.019-1.34-.074-6.1371-.687-12.5313-1.996-19.5063-3.995-5.8183-1.659-11.9279-3.836-19.3122-6.873-5.5673-2.306-9.4546-5.984-11.8365-11.263l-.0117-.023z"/><path d="m53.376 137.751c-.0461.024-.1152.059-.1613.082-2.65 1.399-4.8886 4.297-5.8318 7.525-.7272 2.51-.5888 4.843.4016 6.628 2.6915 4.804 8.728 8.61 15.5978 5.539.1383-.07.2535-.128.3918-.198 2.3046-1.167 4.1075-3.382 4.9724-6.077.8991-2.8.7-5.768-.536-8.153-1.3175-2.546-3.6955-4.614-6.5305-5.64-2.8698-1.037-5.8841-.93-8.304.294zm8.1059 8.925c.781 1.486.3057 3.522-1.0299 4.429-.0805.07-.1497.105-.2418.151-1.3367.677-3.4881.086-4.6266-1.248-.7319-.874-1.0495-2.074-.8705-3.265.1791-1.19.8211-2.21 1.7307-2.815.0461-.023.0922-.047.1383-.07.3918-.198.8769-.212 1.4899-.03 1.5617.454 2.6518 1.35 3.4099 2.848z"/><path d="m104.081 4.89832-.092.04667c-2.627 1.3295-4.7633 3.91571-5.6498 6.91181-.7847 2.5681-.5875 5.1316.5543 7.1591 1.5725 2.8225 3.8475 4.9716 6.3825 6.0336 2.731 1.1651 5.607 1.0704 8.315-.2711.046-.0233.093-.0466.139-.0699 2.627-1.3295 4.65-3.3377 5.725-5.6762 1.223-2.6742 1.105-5.5961-.341-8.4539-1.493-3.00767-3.987-5.19037-7.007-6.18078-2.719-.911-5.629-.71218-8.026.5007zm8.247 11.83498c-.366.7642-.883 1.3442-1.551 1.6824-.369.1866-.75.2924-1.154.2943-1.721.0892-2.651-1.2925-3.071-2.1221-.07-.1383-.14-.2766-.199-.4496l-.011-.023c-.035-.0692-.07-.1383-.094-.1844l-.011-.023c-1.062-2.2128-.781-3.7736.82-4.6707.046-.0233.093-.0466.139-.07.737-.3732 1.419-.3996 2.113-.0564 1.019.4687 1.831 1.1001 2.458 1.8826.988 1.2081 1.167 2.4201.561 3.7399z"/></g></svg>