<svg fill="none" height="170" viewBox="0 0 750 170" width="750" xmlns="http://www.w3.org/2000/svg" xmlns:xlink="http://www.w3.org/1999/xlink"><radialGradient id="a" cx="80.7398" cy="119.05" gradientUnits="userSpaceOnUse" r="80.125"><stop offset=".13" stop-color="#eda820" stop-opacity="0"/><stop offset=".22" stop-color="#eda820" stop-opacity=".11"/><stop offset=".76" stop-color="#eda820" stop-opacity=".74"/><stop offset="1" stop-color="#eda820"/></radialGradient><linearGradient id="b"><stop offset="0" stop-color="#eda820"/><stop offset="1" stop-color="#eda820" stop-opacity="0"/></linearGradient><linearGradient id="c" gradientUnits="userSpaceOnUse" x1="72.2798" x2="-23.9452" xlink:href="#b" y1="141.23" y2="141.23"/><linearGradient id="d" gradientUnits="userSpaceOnUse" x1="50.2648" x2="146.235" xlink:href="#b" y1="114.9" y2="114.9"/><path d="m105.675 38.09h21.945v61.27 52.845h21.945v-114.115-21.945h-43.89z" fill="#eda820"/><path d="m89.3998 79.0049c2.025-5.195 3.16-10.835 3.16-16.745 0-25.465-20.645-46.11-46.11-46.11s-46.109956 20.645-46.109956 46.11h21.944956c0-13.325 10.84-24.165 24.165-24.165s24.165 10.84 24.165 24.165c0 6.18-2.345 11.81-6.17 16.085 3.435-.485 6.94-.75 10.505-.75 4.945 0 9.775.495 14.45 1.41z" fill="url(#a)"/><path d="m92.5048 152.205v-21.945h-65.455c-3.12 6.8-4.77 14.245-4.77 21.945z" fill="url(#c)"/><path d="m89.3998 79.005c-4.675-.92-9.505-1.41-14.45-1.41-3.57 0-7.075.265-10.505.75-36.23 5.11-64.104956 36.225-64.104956 73.86h21.944956c0-7.7 1.65-15.145 4.77-21.945 2.58-5.62 6.155-10.795 10.655-15.295 9.95-9.95 23.175-15.425 37.24-15.425s27.2952 5.48 37.2402 15.425c9.95 9.95 15.425 23.175 15.425 37.24v-52.845c-10.25-10.215-23.455-17.455-38.2152-20.355z" fill="url(#d)"/><g fill="#eda820"><path d="m184.95 76.925c0-4.41 6.16-9.99 20.685-9.99 9.075 0 22.295 2.095 22.295 14.22h21.945c0-20.765-15.575-32.635-45.55-32.635-14.495 0-41.325 5.655-41.325 29.47 0 38 65.805 25.77 65.805 44.865 0 6.29-4.455 11.17-22.245 11.17-24.42 0-22.37-15.83-22.37-15.83h-23.99s-4.62 35.655 46.46 35.655c17.895 0 46.48-3.625 46.48-31.275 0-40.245-68.19-26.185-68.19-45.655z"/><path d="m596.415 48.5151c-26.095 0-47.745 18.985-51.925 43.89-.48 2.855-.74 5.785-.74 8.7799 0 2.995.265 5.92.74 8.78 4.18 24.905 25.83 43.89 51.925 43.89 19.495 0 36.5-10.595 45.605-26.335l-19.01-10.975c-5.32 9.18-15.245 15.37-26.595 15.37-13.89 0-25.65-9.27-29.44-21.945h81.365c.48-2.855.74-5.785.74-8.78 0-2.9949-.265-5.9199-.74-8.7799-4.18-24.905-25.83-43.89-51.925-43.89zm-29.44 43.89c3.785-12.675 15.55-21.945 29.44-21.945s25.65 9.27 29.44 21.945z"/><path d="m681.47 76.925c0-4.41 6.16-9.99 20.685-9.99 9.075 0 22.295 2.095 22.295 14.22h21.945c0-20.765-15.575-32.635-45.55-32.635-14.495 0-41.325 5.655-41.325 29.47 0 38 65.805 25.77 65.805 44.865 0 6.29-4.455 11.17-22.245 11.17-24.42 0-22.37-15.83-22.37-15.83h-23.99s-4.62 35.655 46.46 35.655c17.895 0 46.48-3.625 46.48-31.275 0-40.245-68.19-26.185-68.19-45.655z"/><path d="m319.86 48.515c-15.6 0-26.57 6.54-33.365 15.255v-47.625h-21.945v136.06h21.945v-52.225c0-18.215 9.23-29.52 26.17-29.52 13.74 0 22.11 10.16 22.11 23.52v58.225h21.945v-65.755c0-23.64-20.04-37.935-36.86-37.935z"/><path d="m451.525 63.775c-6.795-8.72-17.895-15.255-31.725-15.255-29.09 0-51.67 23.58-51.67 52.67s22.58 52.67 51.67 52.67c13.83 0 24.93-6.54 31.725-15.255v13.61h21.945v-102.04h-21.945v13.61zm0 37.41c0 16.945-13.785 30.725-30.725 30.725s-30.725-13.78-30.725-30.725 13.78-30.725 30.725-30.725c16.94 0 30.72 13.78 30.725 30.72z"/><path d="m508.585 63.7751v-13.61h-21.945v102.0449h21.945v-51.04c.01-16.9349 13.725-31.6649 30.725-26.3199v-26.335c-13.83 0-23.93 6.54-30.725 15.255z"/><path d="m735.94 21.5051h4.75c1.145 0 2.87.965 2.87 3 0 1.295-.71 2.235-1.535 2.745l1.92 3.635h-2.26l-1.64-3.175h-2.045v3.175h-2.06v-9.375zm3.965 4.675c.56 0 1.395-.56 1.395-1.675s-.865-1.475-1.345-1.475h-1.955v3.15z"/><path d="m739.5 18.075c4.54 0 8.235 3.695 8.235 8.235s-3.695 8.235-8.235 8.235-8.235-3.695-8.235-8.235 3.695-8.235 8.235-8.235zm0-1.93c-5.61 0-10.16 4.55-10.16 10.16s4.55 10.16 10.16 10.16 10.16-4.55 10.16-10.16-4.55-10.16-10.16-10.16z"/></g></svg>