<svg width="43" height="39" viewBox="0 0 43 39" fill="none" xmlns="http://www.w3.org/2000/svg">
<path d="M1.34608 11.6087C1.87224 11.0878 2.64285 10.9002 3.34956 11.1211L24.7121 17.7981L21.6495 2.6942L21.6153 2.45241C21.571 1.88672 21.7701 1.32395 22.1689 0.909598C22.6246 0.436333 23.2839 0.21707 23.9323 0.322982L40.9587 3.10388L41.159 3.1472C42.1376 3.41102 42.7767 4.37832 42.6098 5.40015C42.4429 6.42216 41.5289 7.13574 40.517 7.07421L40.3136 7.05125L26.1454 4.73724L29.3065 20.3195C29.447 21.0124 29.2112 21.728 28.6862 22.2016C28.1611 22.6753 27.4246 22.8366 26.7496 22.6257L5.75883 16.0646L11.8923 36.3756C12.2115 37.433 11.6128 38.5496 10.5554 38.8689C9.49802 39.1881 8.38148 38.5893 8.06218 37.5319L0.837811 13.6079L0.80271 13.4742C0.649731 12.8037 0.852823 12.0972 1.34608 11.6087Z" fill="#FFFC36"/>
</svg>
