<svg width="585.96" height="465" version="1.1" viewBox="0 0 585.96375 465" xmlns="http://www.w3.org/2000/svg">
 <title>hero bg@1x</title>
 <desc>Created with Sketch.</desc>
 <path d="m47.98 462.48c0-1.7191-0.7955-2.8839-2.5-3.6605-1.375-0.6265-2.4911-1.4044-2.4803-1.7286 0.016-0.47782 42.33-24.765 45.165-25.923 0.44868-0.18334 0.81578 0.80365 0.81578 2.1933 0 1.466 0.91921 3.1705 2.1897 4.0603 1.2043 0.84353 1.9918 1.7208 1.75 1.9495-0.77977 0.73736-43.958 25.63-44.457 25.63-0.2652 0-0.4822-1.1346-0.4822-2.5214zm126.5-39.1c-11-6.3652-20.198-11.765-20.44-11.999-0.24181-0.23417 0.54569-1.1159 1.75-1.9595 1.237-0.8664 2.1897-2.5968 2.1897-3.977 0-1.3438 0.16299-2.4433 0.3622-2.4433 0.47025 0 44.98 25.152 45.638 25.789 0.275 0.2665-0.0791 0.69098-0.78695 0.94329-0.70782 0.25231-2.5728 1.5407-4.1444 2.8631-1.5716 1.3224-3.2424 2.3935-3.7131 2.3802-0.4706-0.0133-9.8556-5.232-20.856-11.597zm-90.559-5.7246c-11.858-6.6847-24.126-13.624-27.264-15.42l-5.7045-3.2664 0.2639-32.126 0.2638-32.126 27.424-15.908 27.424-15.908 22.076 12.728c12.142 7.0003 24.438 14.093 27.326 15.761l5.25 3.0333v63.519l-14.25 8.4152c-17.9 10.571-40.731 23.676-41.026 23.549-0.12306-0.0528-9.9255-5.5653-21.783-12.25zm17.059-25.945v-22.291l-18.349-10.709c-10.092-5.8899-18.867-10.709-19.5-10.709-0.8321 0-1.1509 5.9481-1.1509 21.477v21.477l2.7019 1.7731c2.7516 1.8056 35.592 21.144 36.048 21.227 0.1375 0.0251 0.25-9.9854 0.25-22.246zm-26.359-1.8755c-2.6266-0.98545-2.8098-1.3782-2.2566-4.838 0.51138-3.198 0.30168-3.8441-1.3913-4.2868-2.5676-0.67144-2.564-2.3261 7e-3 -2.9983 1.6698-0.43666 2-1.364 2-5.6166-4e-5 -2.8015 0.41265-5.0936 0.91706-5.0936 2.6238 0 10.047 4.1683 12.397 6.9615 7.2443 8.6093-1.0328 19.864-11.673 15.872zm7.2155-2.9333c6.2227-2.1692 5.3555-9.5122-1.6068-13.605l-4.25-2.4983v3.6015c0 3.206 0.28375 3.6015 2.5833 3.6015 3.0758 0 2.8172 2.3436-0.30972 2.8062-2.7507 0.40694-3.7759 4.2958-1.5669 5.9438 2.004 1.495 1.3468 1.4759 5.1501 0.15007zm51.893 14.172 16.25-9.2213v-21.866c0-12.027-0.35068-22.083-0.77928-22.348-0.42861-0.26489-9.0911 4.3458-19.25 10.246l-18.471 10.728-0.26901 22.788-0.26902 22.788 3.269-1.9466c1.798-1.0706 10.582-6.0962 19.519-11.168zm-7.1087-8.2387c-2.6266-0.98545-2.8098-1.3782-2.2566-4.838 0.51138-3.198 0.30168-3.8441-1.3913-4.2868-2.5676-0.67144-2.564-2.3261 7e-3 -2.9983 1.6698-0.43666 2-1.364 2-5.6166 0-2.8015 0.41269-5.0936 0.91709-5.0936 2.6238 0 10.047 4.1683 12.397 6.9615 7.2443 8.6093-1.0328 19.864-11.673 15.872zm7.2155-2.9333c6.2227-2.1692 5.3555-9.5122-1.6068-13.605l-4.25-2.4983v3.6015c0 3.206 0.28375 3.6015 2.5833 3.6015 3.0758 0 2.8172 2.3436-0.30972 2.8062-2.7507 0.40694-3.7759 4.2958-1.5669 5.9438 2.004 1.495 1.3468 1.4759 5.1501 0.15007zm-14.504-36.747c7.2312-4.3156 15.735-9.2986 18.898-11.073 3.1625-1.7748 5.75-3.3753 5.75-3.5568s-8.55-5.3319-19-11.445l-19-11.115-19.044 11.141c-10.474 6.1277-18.782 11.403-18.462 11.723 0.65403 0.65402 36.809 22.076 37.359 22.135 0.19378 0.0209 6.2688-3.493 13.5-7.8086zm-17.711-6.3201c-2.6266-0.98545-2.8098-1.3782-2.2566-4.838 0.51138-3.198 0.30168-3.8441-1.3913-4.2868-2.5676-0.67144-2.564-2.3261 7e-3 -2.9983 1.6698-0.43666 2-1.364 2-5.6166 0-2.8015 0.41269-5.0936 0.91709-5.0936 2.6238 0 10.047 4.1683 12.397 6.9615 7.2443 8.6093-1.0328 19.864-11.673 15.872zm7.2155-2.9333c6.2227-2.1692 5.3555-9.5122-1.6068-13.605l-4.25-2.4983v3.6015c0 3.206 0.28375 3.6015 2.5833 3.6015 3.0758 0 2.8172 2.3436-0.30972 2.8062-2.7507 0.40694-3.7759 4.2958-1.5669 5.9438 2.004 1.495 1.3468 1.4759 5.1501 0.15007zm66.143 29.578c0-1.7191-0.7955-2.8839-2.5-3.6605-1.375-0.6265-2.4912-1.4044-2.4803-1.7286 0.0159-0.47782 42.33-24.765 45.165-25.923 0.44868-0.18334 0.81578 0.80365 0.81578 2.1933 0 1.466 0.91921 3.1705 2.1897 4.0603 1.2043 0.84353 1.9918 1.7208 1.75 1.9495-0.77976 0.73736-43.958 25.63-44.457 25.63-0.26522 0-0.48222-1.1346-0.48222-2.5214zm118.5-34.1c-11-6.3652-20.198-11.765-20.44-11.999-0.24181-0.23417 0.54569-1.1159 1.75-1.9595 1.237-0.8664 2.1897-2.5968 2.1897-3.977 0-1.3438 0.16299-2.4433 0.3622-2.4433 0.47025 0 44.98 25.152 45.638 25.789 0.275 0.2665-0.0791 0.69098-0.78695 0.94329-0.70782 0.25231-2.5728 1.5407-4.1444 2.8631-1.5716 1.3224-3.2424 2.3935-3.7131 2.3802-0.4706-0.0133-9.8556-5.232-20.856-11.597zm-88.559-9.7246c-11.858-6.6847-24.126-13.624-27.264-15.42l-5.7045-3.2664 0.26383-32.126 0.26383-32.126 27.424-15.908 27.424-15.908 22.076 12.728c12.142 7.0003 24.438 14.093 27.326 15.761l5.25 3.0333v63.519l-14.25 8.4152c-17.9 10.571-40.731 23.676-41.026 23.549-0.12306-0.0528-9.9255-5.5653-21.783-12.25zm17.059-25.945v-22.291l-18.349-10.709c-10.092-5.8899-18.867-10.709-19.5-10.709-0.83217 0-1.1509 5.9481-1.1509 21.477v21.477l2.7019 1.7731c2.7516 1.8056 35.592 21.144 36.048 21.227 0.1375 0.0251 0.25-9.9854 0.25-22.246zm-26.359 0.12453c-2.6266-0.98545-2.8098-1.3782-2.2566-4.838 0.51138-3.198 0.30168-3.8441-1.3913-4.2868-2.5676-0.67144-2.564-2.3261 7e-3 -2.9983 1.6698-0.43666 2-1.364 2-5.6166 0-2.8015 0.41269-5.0936 0.91709-5.0936 2.6238 0 10.047 4.1683 12.397 6.9615 7.2443 8.6093-1.0328 19.864-11.673 15.872zm7.2155-2.9333c6.2227-2.1692 5.3555-9.5122-1.6068-13.605l-4.25-2.4983v3.6015c0 3.206 0.28375 3.6015 2.5833 3.6015 3.0758 0 2.8172 2.3436-0.30972 2.8062-2.7507 0.40694-3.7759 4.2958-1.5669 5.9438 2.004 1.495 1.3468 1.4759 5.1501 0.15007zm51.893 12.172 16.25-9.2213v-21.866c0-12.027-0.35068-22.083-0.77928-22.348-0.42861-0.26489-9.0911 4.3458-19.25 10.246l-18.471 10.728-0.26901 22.788-0.26902 22.788 3.269-1.9466c1.798-1.0706 10.582-6.0962 19.519-11.168zm-7.1087-6.2387c-2.6266-0.98545-2.8098-1.3782-2.2566-4.838 0.51138-3.198 0.30168-3.8441-1.3913-4.2868-2.5676-0.67144-2.564-2.3261 7e-3 -2.9983 1.6698-0.43666 2-1.364 2-5.6166 0-2.8015 0.41269-5.0936 0.91709-5.0936 2.6238 0 10.047 4.1683 12.397 6.9615 7.2443 8.6093-1.0328 19.864-11.673 15.872zm7.2155-2.9333c6.2227-2.1692 5.3555-9.5122-1.6068-13.605l-4.25-2.4983v3.6015c0 3.206 0.28375 3.6015 2.5833 3.6015 3.0758 0 2.8172 2.3436-0.30972 2.8062-2.7507 0.40694-3.7759 4.2958-1.5669 5.9438 2.004 1.495 1.3468 1.4759 5.1501 0.15007zm-14.504-38.747c7.2312-4.3156 15.735-9.2986 18.898-11.073 3.1625-1.7748 5.75-3.3753 5.75-3.5568s-8.55-5.3319-19-11.445l-19-11.115-19.044 11.141c-10.474 6.1277-18.782 11.403-18.462 11.723 0.65403 0.65402 36.809 22.076 37.359 22.135 0.19378 0.0209 6.2688-3.493 13.5-7.8086zm-17.711-4.3201c-2.6266-0.98545-2.8098-1.3782-2.2566-4.838 0.51138-3.198 0.30168-3.8441-1.3913-4.2868-2.5676-0.67144-2.564-2.3261 7e-3 -2.9983 1.6698-0.43666 2-1.364 2-5.6166 0-2.8015 0.41269-5.0936 0.91709-5.0936 2.6238 0 10.047 4.1683 12.397 6.9615 7.2443 8.6093-1.0328 19.864-11.673 15.872zm7.2155-2.9333c6.2227-2.1692 5.3555-9.5122-1.6068-13.605l-4.25-2.4983v3.6015c0 3.206 0.28375 3.6015 2.5833 3.6015 3.0758 0 2.8172 2.3436-0.30972 2.8062-2.7507 0.40694-3.7759 4.2958-1.5669 5.9438 2.004 1.495 1.3468 1.4759 5.1501 0.15007zm-205.36 60.479c-11-6.3652-20.198-11.765-20.44-11.999-0.2418-0.23417 0.5457-1.1159 1.75-1.9595 1.237-0.8664 2.1897-2.5968 2.1897-3.977 0-1.3438 0.163-2.4433 0.3622-2.4433 0.4703 0 44.98 25.152 45.638 25.789 0.275 0.2665-0.079 0.69098-0.7869 0.94329s-2.5728 1.5407-4.1444 2.8631-3.2424 2.3935-3.7131 2.3802c-0.4706-0.0133-9.8556-5.232-20.856-11.597zm74.5-42.379c0-14.85 0.24083-27 0.53518-27s1.5617 0.67257 2.8163 1.4946c2.0043 1.3133 2.5156 1.3172 4.2148 0.0318 1.0636-0.80454 2.2713-1.4771 2.6838-1.4946s0.75 12.118 0.75 26.968-0.3375 26.986-0.75 26.968c-0.4125-0.0175-1.6202-0.69007-2.6838-1.4946-1.6992-1.2854-2.2105-1.2815-4.2148 0.0318-1.2546 0.82204-2.5219 1.4946-2.8163 1.4946s-0.53518-12.15-0.53518-27zm196 17.479c0-1.7191-0.7955-2.8839-2.5-3.6605-1.375-0.6265-2.4912-1.4044-2.4803-1.7286 0.0159-0.47782 42.33-24.765 45.165-25.923 0.44868-0.18334 0.81578 0.80365 0.81578 2.1933 0 1.466 0.91921 3.1705 2.1897 4.0603 1.2043 0.84353 1.9918 1.7208 1.75 1.9495-0.77976 0.73736-43.958 25.63-44.457 25.63-0.26522 0-0.48222-1.1346-0.48222-2.5214zm35.941-40.825c-11.858-6.6847-24.126-13.624-27.264-15.42l-5.7045-3.2664 0.26383-32.126 0.26383-32.126 27.424-15.908 27.424-15.908 22.076 12.728c12.142 7.0003 24.438 14.093 27.326 15.761l5.25 3.0333v63.519l-14.25 8.4152c-17.9 10.571-40.731 23.676-41.026 23.549-0.12306-0.0528-9.9255-5.5653-21.783-12.25zm17.059-25.945v-22.291l-18.349-10.709c-10.092-5.8899-18.867-10.709-19.5-10.709-0.83217 0-1.1509 5.9481-1.1509 21.477v21.477l2.7019 1.7731c2.7516 1.8056 35.592 21.144 36.048 21.227 0.1375 0.0251 0.25-9.9854 0.25-22.246zm-27.359-4.8755c-2.6266-0.98545-2.8098-1.3782-2.2566-4.838 0.51138-3.198 0.30168-3.8441-1.3913-4.2868-2.5676-0.67144-2.564-2.3261 7e-3 -2.9983 1.6698-0.43666 2-1.364 2-5.6166 0-2.8015 0.41269-5.0936 0.91709-5.0936 2.6238 0 10.047 4.1683 12.397 6.9615 7.2443 8.6093-1.0328 19.864-11.673 15.872zm7.2155-2.9333c6.2227-2.1692 5.3555-9.5122-1.6068-13.605l-4.25-2.4983v3.6015c0 3.206 0.28375 3.6015 2.5833 3.6015 3.0758 0 2.8172 2.3436-0.30972 2.8062-2.7507 0.40694-3.7759 4.2958-1.5669 5.9438 2.004 1.495 1.3468 1.4759 5.1501 0.15007zm52.893 17.172 16.25-9.2213v-21.866c0-12.027-0.35068-22.083-0.77928-22.348-0.42861-0.26489-9.0911 4.3458-19.25 10.246l-18.471 10.728-0.26901 22.788-0.26902 22.788 3.269-1.9466c1.798-1.0706 10.582-6.0962 19.519-11.168zm-8.1087-11.239c-2.6266-0.98545-2.8098-1.3782-2.2566-4.838 0.51138-3.198 0.30168-3.8441-1.3913-4.2868-2.5676-0.67144-2.564-2.3261 7e-3 -2.9983 1.6698-0.43666 2-1.364 2-5.6166 0-2.8015 0.41269-5.0936 0.91709-5.0936 2.6238 0 10.047 4.1683 12.397 6.9615 7.2443 8.6093-1.0328 19.864-11.673 15.872zm7.2155-2.9333c6.2227-2.1692 5.3555-9.5122-1.6068-13.605l-4.25-2.4983v3.6015c0 3.206 0.28375 3.6015 2.5833 3.6015 3.0758 0 2.8172 2.3436-0.30972 2.8062-2.7507 0.40694-3.7759 4.2958-1.5669 5.9438 2.004 1.495 1.3468 1.4759 5.1501 0.15007zm-13.504-33.747c7.2312-4.3156 15.735-9.2986 18.898-11.073 3.1625-1.7748 5.75-3.3753 5.75-3.5568s-8.55-5.3319-19-11.445l-19-11.115-19.044 11.141c-10.474 6.1277-18.782 11.403-18.462 11.723 0.65403 0.65402 36.809 22.076 37.359 22.135 0.19378 0.0209 6.2688-3.493 13.5-7.8086zm-18.711-9.3201c-2.6266-0.98545-2.8098-1.3782-2.2566-4.838 0.51138-3.198 0.30168-3.8441-1.3913-4.2868-2.5676-0.67144-2.564-2.3261 7e-3 -2.9983 1.6698-0.43666 2-1.364 2-5.6166 0-2.8015 0.41269-5.0936 0.91709-5.0936 2.6238 0 10.047 4.1683 12.397 6.9616 7.2443 8.6093-1.0328 19.864-11.673 15.872zm7.2155-2.9333c6.2227-2.1692 5.3555-9.5122-1.6068-13.605l-4.25-2.4983v3.6015c0 3.206 0.28375 3.6015 2.5833 3.6015 3.0758 0 2.8172 2.3436-0.30972 2.8062-2.7507 0.40694-3.7759 4.2958-1.5669 5.9438 2.004 1.495 1.3468 1.4759 5.1501 0.15007zm73.643 77.479c-11-6.3652-20.198-11.765-20.44-11.999-0.24181-0.23417 0.54569-1.1159 1.75-1.9595 1.237-0.8664 2.1897-2.5968 2.1897-3.977 0-1.3438 0.16299-2.4433 0.3622-2.4433 0.47025 0 44.98 25.152 45.638 25.789 0.275 0.2665-0.0791 0.69098-0.78695 0.94329-0.70782 0.25231-2.5728 1.5407-4.1444 2.8631-1.5716 1.3224-3.2424 2.3935-3.7131 2.3802-0.4706-0.0133-9.8556-5.232-20.856-11.597zm-423.5-5.9001c0-1.7191-0.7955-2.8839-2.5-3.6605-1.375-0.6265-2.4911-1.4044-2.4803-1.7286 0.016-0.47782 42.33-24.765 45.164-25.923 0.4487-0.18334 0.8158 0.80365 0.8158 2.1933 0 1.466 0.9192 3.1705 2.1897 4.0603 1.2043 0.84353 1.9918 1.7208 1.75 1.9495-0.7798 0.73736-43.958 25.63-44.457 25.63-0.2652 0-0.4822-1.1346-0.4822-2.5214zm71.75-17.117-26.75-15.548 0.018-32.157 0.018-32.157 26.958-15.5c14.827-8.525 27.2-15.5 27.495-15.5s12.671 6.975 27.502 15.5l26.966 15.5 0.0218 32.158 0.0217 32.158-26.936 15.592c-14.815 8.5757-27.302 15.572-27.75 15.547-0.44769-0.025-12.851-7.0418-27.564-15.593zm52.901-11.071 18.349-10.709v-22.291c0-12.26-0.36315-22.291-0.80701-22.291-0.79473 0-19.971 10.845-31.693 17.923l-6 3.6233-0.26913 22.227c-0.19928 16.458 0.0345 22.227 0.90092 22.227 0.64353 0 9.4271-4.819 19.519-10.709zm-4.0096-12.458c-2.6266-0.98545-2.8098-1.3782-2.2566-4.838 0.51138-3.198 0.30168-3.8441-1.3913-4.2868-2.5676-0.67144-2.564-2.3261 7e-3 -2.9983 1.6698-0.43666 2-1.364 2-5.6166 0-2.8015 0.41269-5.0936 0.91709-5.0936 2.6238 0 10.047 4.1683 12.397 6.9615 7.2443 8.6093-1.0328 19.864-11.673 15.872zm7.2155-2.9333c6.2227-2.1692 5.3555-9.5122-1.6068-13.605l-4.25-2.4983v3.6015c0 3.206 0.28375 3.6015 2.5833 3.6015 3.0758 0 2.8172 2.3436-0.30972 2.8062-2.7507 0.40694-3.7759 4.2958-1.5669 5.9438 2.004 1.495 1.3468 1.4759 5.1501 0.15007zm-32.857 3.7224c0-15.892-0.32074-21.639-1.25-22.396-0.6875-0.56007-8-4.9451-16.25-9.7446-8.25-4.7994-16.462-9.608-18.25-10.686l-3.25-1.9594v44.739l18.25 10.69c10.038 5.8794 18.812 10.7 19.5 10.712 0.96171 0.017 1.25-4.9083 1.25-21.355zm-26.359-3.789c-2.6266-0.98545-2.8098-1.3782-2.2566-4.838 0.51138-3.198 0.30168-3.8441-1.3913-4.2868-2.5676-0.67144-2.564-2.3261 7e-3 -2.9983 1.6698-0.43666 2-1.364 2-5.6166-4e-5 -2.8015 0.41265-5.0936 0.91706-5.0936 2.6238 0 10.047 4.1683 12.397 6.9615 7.2443 8.6093-1.0328 19.864-11.673 15.872zm7.2155-2.9333c6.2227-2.1692 5.3555-9.5122-1.6068-13.605l-4.25-2.4983v3.6015c0 3.206 0.28375 3.6015 2.5833 3.6015 3.0758 0 2.8172 2.3436-0.30972 2.8062-2.7507 0.40694-3.7759 4.2958-1.5669 5.9438 2.004 1.495 1.3468 1.4759 5.1501 0.15007zm41.569-33.885c9.4331-5.4918 17.931-10.556 18.885-11.253 1.5203-1.1117-0.60093-2.5937-17.198-12.015-10.413-5.9108-19.235-10.747-19.605-10.747-1.7443 0-38.41 21.495-37.755 22.134 1.3107 1.2781 36.711 21.828 37.635 21.848 0.48804 0.0103 8.6053-4.4745 18.038-9.9662zm-21.784-6.1816c-2.6266-0.98545-2.8098-1.3782-2.2566-4.838 0.51138-3.198 0.30168-3.8441-1.3913-4.2868-2.5676-0.67144-2.564-2.3261 7e-3 -2.9983 1.6698-0.43666 2-1.364 2-5.6166 0-2.8015 0.41269-5.0936 0.91709-5.0936 2.6239 0 10.047 4.1683 12.397 6.9615 7.2443 8.6093-1.0328 19.864-11.673 15.872zm7.2155-2.9333c6.2227-2.1693 5.3555-9.5123-1.6068-13.605l-4.25-2.4983v3.6015c0 3.206 0.28375 3.6015 2.5833 3.6015 3.0758 0 2.8172 2.3436-0.30972 2.8062-2.7507 0.40694-3.7759 4.2958-1.5669 5.9438 2.004 1.495 1.3468 1.4759 5.1501 0.15007zm65.382 70.141c-13.244-7.7858-13.258-7.7979-10.819-9.3966 1.3437-0.88041 2.5864-2.706 2.7616-4.0569 0.31123-2.3999 0.62357-2.2823 13.638 5.1355l13.319 7.5916-2.5115 2.0927c-1.3813 1.151-2.6499 3.0685-2.8191 4.2611-0.28382 2.0005-1.3346 1.5647-13.569-5.6274zm245.76-16.562c0-1.7191-0.7955-2.8839-2.5-3.6605-1.375-0.6265-2.4912-1.4044-2.4803-1.7286 0.0159-0.47782 42.33-24.765 45.165-25.923 0.44868-0.18334 0.81578 0.80365 0.81578 2.1933 0 1.466 0.91921 3.1705 2.1897 4.0603 1.2043 0.84353 1.9918 1.7208 1.75 1.9495-0.77976 0.73736-43.958 25.63-44.457 25.63-0.26522 0-0.48222-1.1346-0.48222-2.5214zm128.5-36.1c-11-6.3652-20.198-11.765-20.44-11.999-0.24181-0.23417 0.54569-1.1159 1.75-1.9595 1.237-0.8664 2.1897-2.5968 2.1897-3.977 0-1.3438 0.16299-2.4433 0.3622-2.4433 0.47025 0 44.98 25.152 45.638 25.789 0.275 0.2665-0.0791 0.69098-0.78695 0.94329-0.70782 0.25231-2.5728 1.5407-4.1444 2.8631-1.5716 1.3224-3.2424 2.3935-3.7131 2.3802-0.4706-0.0133-9.8556-5.232-20.856-11.597zm-93.559-2.7246c-11.858-6.6847-24.126-13.624-27.264-15.42l-5.7045-3.2664 0.26383-32.126 0.26383-32.126 27.424-15.908 27.424-15.908 22.076 12.728c12.142 7.0003 24.438 14.093 27.326 15.761l5.25 3.0333v63.519l-14.25 8.4152c-17.9 10.571-40.731 23.676-41.026 23.549-0.12306-0.0528-9.9255-5.5653-21.783-12.25zm17.059-25.945v-22.291l-18.349-10.709c-10.092-5.8899-18.867-10.709-19.5-10.709-0.83217 0-1.1509 5.9481-1.1509 21.477v21.477l2.7019 1.7731c2.7516 1.8056 35.592 21.144 36.048 21.227 0.1375 0.0251 0.25-9.9854 0.25-22.246zm-27.359-1.8755c-2.6266-0.98545-2.8098-1.3782-2.2566-4.838 0.51138-3.198 0.30168-3.8441-1.3913-4.2868-2.5676-0.67144-2.564-2.3261 7e-3 -2.9983 1.6698-0.43666 2-1.364 2-5.6166 0-2.8015 0.41269-5.0936 0.91709-5.0936 2.6238 0 10.047 4.1683 12.397 6.9615 7.2443 8.6093-1.0328 19.864-11.673 15.872zm7.2155-2.9333c6.2227-2.1692 5.3555-9.5122-1.6068-13.605l-4.25-2.4983v3.6015c0 3.206 0.28375 3.6015 2.5833 3.6015 3.0758 0 2.8172 2.3436-0.30972 2.8062-2.7507 0.40694-3.7759 4.2958-1.5669 5.9438 2.004 1.495 1.3468 1.4759 5.1501 0.15007zm52.893 14.172 16.25-9.2213v-21.866c0-12.027-0.35068-22.083-0.77928-22.348-0.42861-0.26489-9.0911 4.3458-19.25 10.246l-18.471 10.728-0.26901 22.788-0.26902 22.788 3.269-1.9466c1.798-1.0706 10.582-6.0962 19.519-11.168zm-8.1087-8.2387c-2.6266-0.98545-2.8098-1.3782-2.2566-4.838 0.51138-3.198 0.30168-3.8441-1.3913-4.2868-2.5676-0.67144-2.564-2.3261 7e-3 -2.9983 1.6698-0.43666 2-1.364 2-5.6166 0-2.8015 0.41269-5.0936 0.91709-5.0936 2.6238 0 10.047 4.1683 12.397 6.9615 7.2443 8.6093-1.0328 19.864-11.673 15.872zm7.2155-2.9333c6.2227-2.1692 5.3555-9.5122-1.6068-13.605l-4.25-2.4983v3.6015c0 3.206 0.28375 3.6015 2.5833 3.6015 3.0758 0 2.8172 2.3436-0.30972 2.8062-2.7507 0.40694-3.7759 4.2958-1.5669 5.9438 2.004 1.495 1.3468 1.4759 5.1501 0.15007zm-13.504-36.747c7.2312-4.3156 15.735-9.2986 18.898-11.073s5.75-3.3753 5.75-3.5568-8.55-5.3319-19-11.445l-19-11.115-19.044 11.141c-10.474 6.1277-18.782 11.403-18.462 11.723 0.65403 0.65403 36.809 22.076 37.359 22.135 0.19378 0.0209 6.2688-3.493 13.5-7.8086zm-18.711-6.3201c-2.6266-0.98545-2.8098-1.3782-2.2566-4.838 0.51138-3.198 0.30168-3.8441-1.3913-4.2868-2.5676-0.67143-2.564-2.3261 7e-3 -2.9983 1.6698-0.43666 2-1.364 2-5.6166-4.4e-4 -2.8015 0.41225-5.0936 0.91665-5.0936 2.6238 0 10.047 4.1683 12.397 6.9615 7.2443 8.6093-1.0328 19.864-11.673 15.872zm7.2155-2.9333c6.2227-2.1693 5.3555-9.5122-1.6068-13.605l-4.25-2.4983v3.6015c0 3.206 0.28375 3.6016 2.5833 3.6016 3.0758 0 2.8172 2.3436-0.30972 2.8062-2.7507 0.40693-3.7759 4.2958-1.5669 5.9438 2.004 1.495 1.3468 1.4759 5.1501 0.15007zm-312.86 51.578c0-1.7191-0.7955-2.8839-2.5-3.6605-1.375-0.6265-2.4912-1.4044-2.4803-1.7286 0.0159-0.47782 42.33-24.765 45.165-25.923 0.44868-0.18334 0.81578 0.80365 0.81578 2.1933 0 1.466 0.91921 3.1705 2.1897 4.0603 1.2043 0.84353 1.9918 1.7208 1.75 1.9495-0.77976 0.73736-43.958 25.63-44.457 25.63-0.26522 0-0.48222-1.1346-0.48222-2.5214zm78.941-9.8245c-11.858-6.6847-24.126-13.624-27.264-15.42l-5.7045-3.2664 0.26383-32.126 0.26383-32.126 27.424-15.908 27.424-15.908 22.076 12.728c12.142 7.0003 24.438 14.093 27.326 15.761l5.25 3.0333v61.389l-6.75 4.9621c-3.7125 2.7292-8.55 6.0802-10.75 7.4469-5.8025 3.6045-37.487 21.798-37.765 21.684-0.12927-0.0528-9.9368-5.5653-21.794-12.25zm17.059-25.945v-22.291l-18.349-10.709c-10.092-5.8899-18.867-10.709-19.5-10.709-0.83217 0-1.1509 5.9481-1.1509 21.477v21.477l2.7019 1.7731c2.7516 1.8056 35.592 21.144 36.048 21.227 0.1375 0.0251 0.25-9.9854 0.25-22.246zm-26.359-2.8755c-2.6266-0.98545-2.8098-1.3782-2.2566-4.838 0.51138-3.198 0.30168-3.8441-1.3913-4.2868-2.5676-0.67144-2.564-2.3261 7e-3 -2.9983 1.6698-0.43666 2-1.364 2-5.6166-4.4e-4 -2.8015 0.41225-5.0936 0.91665-5.0936 2.6238 0 10.047 4.1683 12.397 6.9615 7.2443 8.6093-1.0328 19.864-11.673 15.872zm7.2155-2.9333c6.2227-2.1692 5.3555-9.5122-1.6068-13.605l-4.25-2.4983v3.6015c0 3.206 0.28375 3.6015 2.5833 3.6015 3.0758 0 2.8172 2.3436-0.30972 2.8062-2.7507 0.40694-3.7759 4.2958-1.5669 5.9438 2.004 1.495 1.3468 1.4759 5.1501 0.15007zm51.893 15.172 16.25-9.2213v-21.866c0-12.027-0.35068-22.083-0.77928-22.348-0.42861-0.2649-9.0911 4.3458-19.25 10.246l-18.471 10.728-0.26901 22.788-0.26902 22.788 3.269-1.9466c1.798-1.0706 10.582-6.0962 19.519-11.168zm-7.1087-9.2387c-2.6266-0.98545-2.8098-1.3782-2.2566-4.838 0.51138-3.198 0.30168-3.8441-1.3913-4.2868-2.5676-0.67144-2.564-2.3261 7e-3 -2.9983 1.6698-0.43666 2-1.364 2-5.6166-4.4e-4 -2.8015 0.41225-5.0936 0.91665-5.0936 2.6238 0 10.047 4.1683 12.397 6.9615 7.2443 8.6093-1.0328 19.864-11.673 15.872zm7.2155-2.9333c6.2227-2.1692 5.3555-9.5122-1.6068-13.605l-4.25-2.4983v3.6016c0 3.206 0.28375 3.6015 2.5833 3.6015 3.0758 0 2.8172 2.3436-0.30972 2.8062-2.7507 0.40694-3.7759 4.2958-1.5669 5.9438 2.004 1.495 1.3468 1.4759 5.1501 0.15007zm-14.504-35.747c7.2312-4.3156 15.735-9.2986 18.898-11.073s5.75-3.3753 5.75-3.5568-8.55-5.3319-19-11.445l-19-11.115-19.044 11.141c-10.474 6.1277-18.782 11.403-18.462 11.723 0.65403 0.65403 36.809 22.076 37.359 22.135 0.19378 0.0209 6.2688-3.493 13.5-7.8086zm-17.711-7.3201c-2.6266-0.98544-2.8098-1.3782-2.2566-4.838 0.51138-3.198 0.30168-3.8441-1.3913-4.2868-2.5676-0.67143-2.564-2.3261 7e-3 -2.9983 1.6698-0.43666 2-1.364 2-5.6166-4.4e-4 -2.8015 0.41225-5.0936 0.91665-5.0936 2.6238 0 10.047 4.1683 12.397 6.9615 7.2443 8.6093-1.0328 19.864-11.673 15.872zm7.2155-2.9333c6.2227-2.1693 5.3555-9.5122-1.6068-13.605l-4.25-2.4983v3.6015c0 3.206 0.28375 3.6016 2.5833 3.6016 3.0758 0 2.8172 2.3436-0.30972 2.8062-2.7507 0.40693-3.7759 4.2958-1.5669 5.9438 2.004 1.495 1.3468 1.4759 5.1501 0.15007zm57.381 70.645-12.263-7.299 2.444-1.6014c1.3442-0.88076 2.5874-2.7067 2.7626-4.0576 0.31119-2.3996 0.62624-2.2808 13.68 5.1594l13.361 7.6156-2.6112 1.9021c-1.4362 1.0462-2.6112 2.7646-2.6112 3.8187 0 1.0541-0.5625 1.8816-1.25 1.8388-0.6875-0.0428-6.7682-3.3623-13.513-7.3768zm214.76 4.9331c0-1.7191-0.7955-2.8839-2.5-3.6605-1.375-0.6265-2.4912-1.4044-2.4803-1.7286 0.0159-0.47782 42.33-24.765 45.165-25.923 0.44868-0.18334 0.81578 0.80365 0.81578 2.1933 0 1.466 0.91921 3.1705 2.1897 4.0603 1.2043 0.84353 1.9918 1.7208 1.75 1.9495-0.77976 0.73736-43.958 25.63-44.457 25.63-0.26522 0-0.48222-1.1346-0.48222-2.5214zm-477.5-29.1c-11-6.3652-20.198-11.765-20.44-11.999-0.2418-0.23417 0.5457-1.1159 1.75-1.9595 1.237-0.86639 2.1897-2.5968 2.1897-3.977 0-1.3438 0.163-2.4433 0.3622-2.4433 0.4703 0 44.98 25.152 45.638 25.789 0.275 0.2665-0.0791 0.69098-0.78695 0.94329-0.70782 0.25231-2.5728 1.5407-4.1444 2.8631-1.5716 1.3224-3.2424 2.3935-3.7131 2.3802-0.4706-0.0133-9.8556-5.232-20.856-11.597zm263.5-54.9c0-1.7191-0.7955-2.8839-2.5-3.6605-1.375-0.62649-2.4912-1.4043-2.4803-1.7286 0.0159-0.47782 42.33-24.765 45.165-25.923 0.44868-0.18333 0.81578 0.80365 0.81578 2.1933 0 1.466 0.91921 3.1705 2.1897 4.0603 1.2043 0.84354 1.9918 1.7208 1.75 1.9495-0.77976 0.73736-43.958 25.63-44.457 25.63-0.26522 0-0.48222-1.1346-0.48222-2.5214zm113.5-10.1c-11-6.3652-20.198-11.765-20.44-11.999-0.24181-0.23418 0.54569-1.1159 1.75-1.9595 1.237-0.86639 2.1897-2.5968 2.1897-3.977 0-1.3438 0.16299-2.4433 0.3622-2.4433 0.47025 0 44.98 25.152 45.638 25.789 0.275 0.2665-0.0791 0.69098-0.78695 0.94329-0.70782 0.25231-2.5728 1.5407-4.1444 2.8631-1.5716 1.3224-3.2424 2.3935-3.7131 2.3802-0.4706-0.0133-9.8556-5.232-20.856-11.597zm-217-27c-11-6.3652-20.198-11.765-20.44-11.999-0.24181-0.23417 0.54569-1.1159 1.75-1.9595 1.237-0.86639 2.1897-2.5968 2.1897-3.977 0-1.3438 0.16299-2.4433 0.3622-2.4433 0.47025 0 44.98 25.152 45.638 25.789 0.275 0.2665-0.0791 0.69098-0.78695 0.94329-0.70782 0.25231-2.5728 1.5407-4.1444 2.8631-1.5716 1.3224-3.2424 2.3935-3.7131 2.3802-0.4706-0.0133-9.8556-5.232-20.856-11.597z" fill="#fff"/>
</svg>
