<svg xmlns="http://www.w3.org/2000/svg" width="53" height="53" fill-rule="evenodd">
  <g fill-rule="nonzero">
    <circle fill="#988430" cx="26.5" cy="26.5" r="26.5" />
    <circle fill="#7a6a2a" cx="26.5" cy="26.5" r="25.651" />
    <circle fill="#ba9f33" cx="26.5" cy="26.5" r="25.111" />
  </g>
  <g fill="#cfb66c">
    <path d="M11.586 23.67l-.455-.412-.446-.412-.446-.424-.223-.21-.232-.202-1.771-1.685 1.801 1.664.21.21.223.21.446.412.446.424.446.424v.001zm-7.856-.085l3.203.373 4.018.605-7.221-.977zm0 0l1.814.18.901.094.454.052.446.064 1.801.287.9.15.901.159-.901-.116-.9-.129-1.801-.266-.446-.073-.455-.052-.901-.107-1.814-.244v.001zm7.007 1.538l-3.075.806-3.075.913 6.149-1.719h0z" />
    <path d="M10.737 25.123l-1.535.433-1.535.412-1.526.446-.763.21-.772.21.763-.245.763-.244 1.526-.468 1.548-.39 1.531-.364h0 0zM4.91 28.258c.253-.094 3.169-1.453 3.846-1.771.339-.159 1.325-.509 1.325-.509l-5.171 2.28z" />
    <path d="M4.91 28.258c.223-.085.433-.189.647-.287l.635-.296 1.274-.613 1.273-.613.669-.244.339-.107.339-.094-1.295.57-1.295.57-1.295.57-1.292.545h0 0zm.283 1.187l3.55-2.045 2.015-1.029-5.566 3.075z" />
    <path d="M5.193 29.446l1.355-.836.678-.412.691-.403.69-.403c.112-.069.23-.13.352-.18l.36-.18 1.454-.669-1.389.785-.699.373-.691.39-.69.39-.699.382-1.411.763h0-.001zm5.544-2.736l-2.174 1.664-2.097 1.535 4.271-3.199h0z" />
  </g>
  <path fill="#e2cc85" d="M20.162 36.877l-.84-1.591.489-1.99 3.486-1.346-1.484-3.044.733-3.075 1.377-2.753 4.254-.669 3.126-2.98 6.75.51 1.325 7.217-2.551 9.086-1.453 4.704-5.892.223-2.736-1.895-3.203-1.338z" />
  <path d="M30.497 36.826s-.815.373-2.205.287c-.402-.54-3.219-.793-3.219-.793s-.352-.107-.974.15-1.218.223-1.771.36-1.102-.583-1.526-.733c-.424-.159-.986-.54-.986-.54l-1.187-.116-2.384-1.008-3.787-3.773-1.029 1.611-.317 1.994 1.145 2.363 3.083 2.809 6.012 1.526 3.563-1.05 4.464-1.887 1.119-1.2h0z" fill="#f1d789" />
  <path fill="#f4ecb4" d="M9.138 23.49l.763-2.311.909-1.492 2.928-.245-.879 2.564-2.448 4.357 1.016 3.889-1.801.9-.553-.849-.446-1.947-.03-2.187z" />
  <path d="M12.422 36.667l-.562-.785s-.15-.373-.064-.699.073-.352.03-.476-.403-.553-.382-.922-.03-.497.244-.793c.287-.287.202-.785.202-.785l.373.232.085-.129s.137.107.137.274c.03-.232-.094-1.304.189-1.548s.785 1.145.785 1.145l-.309-2.015-.793-2.067-1.411-1.887-.085-2.08v-.18s-.648.995-.828 1.781c-.129.54.18 1.196.116 1.972-.052.772-.116.712.073 1.018s.648.935.468 1.389c-.159.39-.699.116-.699.116s-.107.317-.253.433a.96.96 0 0 0-.21-.424c-.009.073-.03.172-.03.172l-.189-.669-.39-1.505-.18.815.073.944.352 1.295.339.848.33 1.038.287.697.232.532.202 1.197.973 1.029.519.232.377-.193h0 .001z" fill="#f3e19d" />
  <path d="M9.648 21.603s-.699 1.187-.9 2.384-.382 2.461-.254 4.091c.129 1.643.373 2.65.57 3.371.339 1.197 1.218 2.86 1.218 2.86l.03-.064a4.52 4.52 0 0 1-.352-.879c-.116-.455-.159-.995-.266-1.239-.094-.244-.253-.455-.33-.755-.073-.287-.085-.742-.309-1.08-.094-.137-.21-.497-.245-.858-.043-.54.021-1.145-.03-1.642-.094-.828-.159-1.389-.073-1.823s.532-1.663.806-2.641c.18-.626.073-1.154.403-1.698s.532-1.016.605-1.346c.085-.3-.875 1.321-.875 1.321h0 .001z" fill="#f2e8b0" />
  <path d="M12.963 21.127s-.36.107-.532.296c-.172.18-.245.33-.476.635s-.245.553-.433.935c-.189.373-.605.935-.656 1.136s-.137 1.145-.244 1.591c-.094.446.107.995.107.995l.244-.052a.77.77 0 0 0 .245.532c.244.21.287-.712.287-.712l.913-3.083 1.376-.935.15-.755-.982-.583h0 .001z" fill="#f5eec0" />
  <path d="M13.632 22.525s-.648.043-.965.274c-.129.094-.18.171-.317.287-.253.21-.51.403-.635.678-.137.274-.287.69-.39 1.475l-.073.901c-.043.36-.107.647-.073.848.043.412.468.626.509 1.093l.879-.446.828-3.263 1.758-1.102-.995-1.115-.527.367h0l.001.002z" fill="#e6db9d" />
  <path d="M8.994 44.5l.011-.098.244-2.461c.137-.742.232-1.018.21-1.295-.03-.446-.064-.772-.021-1.115.064-.455.51-.995.497-1.368-.009-.296-.159-.489-.287-.669l-.232-.33s.879-.605.871-3.04c.018.005.035.012.051.021l.433 1.23.296.36 1.136 2.118 1.462 1.42 2.161 1.453 1.355 1.475.137 3.932-1.771 2.298-.29.525A25.19 25.19 0 0 1 8.994 44.5h0z" fill="#e5cb7a" />
  <path d="M14.404 48.262s.03-.489.433-.806c.064.107.107.21.094.287.073-.128.583-.952 1.737-1.166s1.432-1.05 1.432-1.05l2.448-2.225 2.8-2.577 3.405-1.197 1.591-.39s.03.116-.03.373c.296-.021.952-.171 1.634-.412.274-.107.532-.15.669-.008.202.189.232.635.244.9.33-.073.712-.39 1.018-.36.489.051.922.626 1.42.626.656 0 .952-.403 1.411-.721l.892-.583c.532-.39 6.158-2.11 6.158-2.11l1.972.129.317 2.118-.17 5.537-.063.061-8.968 4.684-12.432 1.906c-2.785-.455-5.472-1.379-7.947-2.734l-.064-.283h0-.001z" fill="#d8c173" />
  <path d="M9.748 45.204l.364-.789.144 1.231-.507-.442h0z" fill="#f1d789" />
  <path d="M18.829 50.416l1.608-.447.137.043s.073.043.073.189c.202-.116.373-.094.497-.171.064.137.128.592.412.647.296.064.613-.129.935-.373.317-.253.678-.57.952-.699a5.11 5.11 0 0 1 .266.57c.36-.287.986-1.453 1.878-1.432.258-.609.688-1.129 1.239-1.496.828-.562 1.346-.605 1.994-.553a3.41 3.41 0 0 1 .935-.836c.107.043.403.223.772.051s.793-.836 1.346-.922a1.3 1.3 0 0 1 .858.18s1.611-1.6 2.723-2.131c-.043-.129-.129-.613 1.175-1.685.073.064.021.245.073.254.021 0 .339-.137.742-.446.497-.373 1.093-.763 1.453-.87.678-.202 1.398.21 1.398.21.061-.043.129-.075.202-.094l.39-.085c-.008.223.116.605 0 .935.134.075.276.136.424.18-.073.159-.232.562-.497.755.223.107.253.232.57.339-.129.18-.339.489-.433.678l-.583 1.355-.476 1.018c-.103.117-.476.613-.763.857.254-.094 1.295-.412 1.737-.532l-1.438 2.132a25.16 25.16 0 0 1-20.598 2.385l.002-.004z" fill="#e0cd81" />
  <path d="M13.738 22.409s-.373 0-.446.051.373.159.51.21.433.287.51.476c.073.18 2.68 1.23 2.68 1.23l1.844-.094.636-.878-1.209-1.059.848-2.5-1.123.18-2.701 1.611-1.355.519-.193.253h0z" fill="#dfc57c" />
  <path d="M17.787 23.237a.29.29 0 0 0 .254.137c.382 0 .733.094.879.287a40.67 40.67 0 0 1 .922 1.295l1.621.583.105-1.909-1.771-1.23-2.015.742v.094h.005.001z" fill="#e5cc7c" />
  <path d="M17.469 23.944s.296.021.669-.116.986-.433 1.252-.317c.373.159.296.656.699 1.102.244.274.69.266.943.562s1.123.159 1.123.159l.33 1.781-1.325 1.698-.433 2.11h-1.792l-1.637-.649-.806-1.95.403-1.972.573-2.406h0z" fill="#d2c281" />
  <path d="M20.934 24.03c.044.014.091.021.137.021-.051.043-.159.137-.116.382s.18.553.064.742c.092.101.161.221.202.352.073.21.094.403.57.433a1 1 0 0 0-.189.15s.33.287.497.553c.171-.007.626-.149.626-.149l.094.064.202-.085s-.189-.073-.051-.532c.129-.403.245-.382.254-.412s.094-.455.094-.626c.064-.223.116-.9.116-.9l-.137-1.496-.772-.468-.628-.606-.592 1.115-.39.389-.03.965.047.107h0z" fill="#e2c270" />
  <path d="M22.791 22.778s.137.39.189.69c.018-.058.028-.119.03-.18l.128.836c.043-.009.085-.021.094.021s.107.519.085.785a2.14 2.14 0 0 1 .72-.72c.172-.107.373-.223.583-.232.33-.008.57.21.965.21.952 0 1.814-.699 2.448-.913.467-.159.87-.274 1.153-.532.137-.116.382-.373.605-.755.296-.509.605-.952.914-1.007-.14.026-.282.036-.424.03 0 0 .094-.094.254-.223s.352-.287.626-.287c.489 0 .733.073 1.008.073.274-.008.433-.073.433-.073s.287.202.935.202c.648.008 1.081.064 1.42.094s1.475-.094 1.801-.085a1.58 1.58 0 0 1 .613.15L36.32 17.81l-3.774-3.299-2.247 1.591-3.456 3.456-3.345 1.239-.699.785v1.196h-.008z" fill="#ccb360" />
  <path d="M30.295 21.028s.094-.094.253-.223.352-.287.626-.287c.489 0 .733.073 1.008.073.274-.008.433-.073.433-.073s.288.201.935.201c.648.008 1.081.064 1.42.094s1.475-.094 1.801-.085a1.57 1.57 0 0 1 .613.15l-.476-1.377-.553-1.05-1.578-1.728-1.908-1.123c-.008-.008-.656-.18-.656-.18l-1.715 1.038-1.556 4.027-.03.848 1.007.476c.253-.424.532-.763.793-.806l-.416.026h0 0z" fill="#d5b457" />
  <path d="M30.274 21.316c-.15.008-.274-.021-.309-.129-.129-.36-.232-.412-.339-.412s-.253.232-.339.253-.189-.266-.189-.266l-.094-.043s-.553.36-.943.785-1.029 1.145-1.316 1.273-1.274.172-1.611.245a2.09 2.09 0 0 0-.763.373c-.051.056.15.116.18.171s-.33.03-.36.085c-.021.043.085.287.137.412a.7.7 0 0 1 .296-.073c.33-.008.57.21.965.21.952 0 1.814-.699 2.448-.914.468-.159.871-.274 1.154-.532.137-.116.382-.373.605-.755.163-.261.322-.506.481-.686h0v.001z" fill="#d2b257" />
  <path d="M16.621 42.537s-.085-.317-.871-1.136l-.51-.562c-.373-.352-.592-.446-.858-.648-.583-.433-1.218-.433-1.706-.965s-1.058-1.548-1.454-2.586l-.497-1.398c0-.03.107-.232.245-.202s.137.296.172.36a2.13 2.13 0 0 0 .232.296c.202.232.489.509.635.922-.03-.352-.15-.742-.15-.742l1.398.973c.648.497.913.669 1.102.986l.848 1.398c.213.245 3.138 1.166 3.138 1.166l1.391 1.037.691 1.514-.54.848-1.038.223-1.685-.755-.54-.732h0 0z" fill="#d2b159" />
  <path d="M12.877 37.323s.352.562 1.209 1.093c.772.468 1.994.892 3.083 1.145.626.15 1.252.266 1.814.274 1.514.021 2.556-.412 3.847-.553.699-.073 1.557-.129 2.448-.339 1.145-.274 1.822-.583 2.744-1.018l1.779-.836c.699-.412 1.209-.87 1.801-1.007-.073.202-.15.562-.733.935l.733-.03s-.412.244-1.136.793c-.446.339-1.038.913-1.642 1.295-.39.245-.815.424-1.094.57-.678.373-.952.562-1.398 1.018.159-.008.172 0 .172 0s-.562.073-.965.287c-.085 0-.232-.03-.489.043-.202.064-.468.21-.742.287-.39.116-.519.064-.519.064l.064.129s-.509-.009-.678.008c.03.008.021.021.021.021a.26.26 0 0 0-.085.03c-.082.053-.171.092-.266.116l-.159.021c.021.051.189.339.266.509-.064.043-1.029.772-1.029.772.03.047.054.097.073.15.03.094.043.232.073.296.073.129.116.15.116.15l-.317.073c-.171.043-.382.116-.678.159a2.69 2.69 0 0 1-.274.021c.043.094.232.455-.116.87s-.455.476-.562.742a1.15 1.15 0 0 0-.172-.107c-.116-.051-.274-.128-.33-.232a2.75 2.75 0 0 1-.129.403c-.107.287-.266.57-.296.785-.116-.129-.33-.382-.626-.33s-.532.455-.583.57c0-.073-.051-.129-.064-.043-.009.094-.172 1.08-1.081 1.878l-.03-.793c-.085.085-.189.21-.806.476-.605.266-.509.532-.509.532s-.051-.424.274-.871l.532-.69a.19.19 0 0 0-.043-.094c-.043-.043-.129-.094-.129-.129.051-.021.562-.266.532-.772-.03-.454-.223-.69-.36-.857-.021-.021.202-.18.172-.232-.021-.03-.296-.232-.33-.339.008-.064.022-.127.043-.189.03-.094.051-.159.043-.223-.021-.107-.137-.403-.172-.433.03.008.244 0 .244 0s-.171-.274-.202-.403l-.129-.532c.073.008.253.021.253 0 .009-.064-.159-.172-.085-.254.051.008.15.051.244.172-.051-.137-.137-.403-.317-.51a.78.78 0 0 1 .626.043.84.84 0 0 1 .339.36l.382.287c.266.21.604.509 1.145.72.116.064.412.064.626.021.093-.022.183-.058.266-.107.03-.018.062-.032.094-.043-.046-.093-.099-.181-.159-.266.073 0 .159.009.159.009s.051-.116-.18-.339c.051-.051.116-.085.116-.172-.073-.008-.202-.116-.232-.159.043-.03.107-.129.18-.159-.064-.051-.223-.266-.296-.287a1.35 1.35 0 0 0 .202-.094s-.36-.094-.476-.172c-.116-.085-.287-.232-.39-.274s-.296-.064-.373-.15c.073.021.189 0 .274 0 .064 0 .094.008.116.008-.008-.03-.008-.094.159-.116.08-.012.159-.037.232-.073 0 0-.159-.008-.339-.18s-.33-.309-.433-.33-.309.073-.433.064c-.172-.021-.245-.107-.245-.107s-.57.051-1.835-.72c-1.094-.669-1.57-1.261-1.57-1.261a1.88 1.88 0 0 1-.296-.137c-.412-.214-.982-.66-.965-1.244h0l-.002.004z" fill="#c2a44d" />
  <path d="M28.653 11.586c.099.032.187.092.254.172.202.232.33.669-.129 1.136.18.064.254.085.412.064-.159.189-.519.592-.54.944-.021.287.159.373.159.373s-.274.317-.287.848c.13-.146.271-.281.424-.403.317-.253.755-.54 1.051-.72-.004.075.006.151.03.223 0 0 .553-.455 1.018-.253.21.094.116.39.116.39s.287-.107.489.094.486.721.633.923c.064.094.232.274.403.553.234.39.429.802.583 1.23.008-.223.064-.57.699-.352s1.355.691 1.959 1.611.754 1.96 1.059 2.356c.309.382.626 1.016.648 1.282s-.094 1.123.54 3.443c.18-.72.455-2.32.455-2.32l.15-1.411.172-4.365-4.558-3.787-3.563-2.586-2.32.223.146.33h0 0z" fill="#caa13e" />
  <path d="M37.121 18.082s-.064-.424-1.136-1.145c-1.072-.712-1.908-.712-2.68-1.316-.592-.476-1.209-1.57-1.611-1.93-.39-.356-.455-1.385-.455-1.385l1.316-1.102 1.958-2.83 1.655-1.822.793 1.102 1.102 1.295.613 2.599.223 3.804-1.781 2.731h.002z" fill="#b59544" />
  <path d="M38.447 22.642c.032-.577-.039-1.155-.21-1.706a31.44 31.44 0 0 0-1.187-3.025c-.116-.648-.03-.699.094-.772s.592-.339.848-1.273 1.051-.965 1.051-.965l.489-.36.742 1.857.647 1.677.202 1.282.15 1.093-.352 2.311-1.736 1.569-.737-1.688h0 0z" fill="#c89d3a" />
  <path d="M14.215 48.404v-.047c.036-.023.068-.051.094-.085.03-.043.052-.094.073-.107.043-.021.245-.085.352-.064s.39.137.54.129c.309-.008.669-.245 1.239-.137.858.159 1.059.742 1.557 1.072.339.232.69.129.742.129h.116c.021 0 .18-.18.266-.171.172.008.189.15.296.159.253.03.742-.129.987-.064a.47.47 0 0 1 .309.308c.051.159.008.36-.116.476-.266.244-.519.476-.57.678a2.41 2.41 0 0 1 .188.159c-2.122-.541-4.163-1.358-6.071-2.431v-.003z" fill="#ceb052" />
  <path d="M37.049 39.836l.901-1.334c.232-.455-.733-6.222-.733-6.222l1.938-6.35-.052-2.067s.094-1.908.317-2.736c.266.476 1.094 1.051 1.274 1.355.085-.583.373-1.814.33-3.126.159.244.54 2.701.54 2.701l.382 1.655.497 1.758.553 1.857.33 1.282.189.309.159.54.15.583.433 1.368.254 1.123.202 2.037c.044.156.075.315.094.476.008.223-.03.352-.03.39s.073.489.043.828c-.043.339-.043.605-.309.848s-.433 1.698-.433 1.698l-.476-.317s.094-.433-.129-.828-.656-.476-.901-.412c-.244.051-.733.128-.892.266-.15.137-.519.562-.858.755-.424.254-1.115.274-1.483.36s-.785.339-1.218.635a6.8 6.8 0 0 1-1.072.565h0l-.002.001z" fill="#cca847" />
  <path d="M37.049 49.205l.083.048c3.046-1.427 5.776-3.45 8.028-5.95l-.092-2.087c-.073-.699-.021-1.411-.043-1.822s-.253-2.088-.36-2.521c-.116-.433-.339-.648-.373-.648-.03.009-.21.815-.21 1.018s-.043.691-.043.815c-.03-.009-.043-.085-.043-.116l-.116.317c-.021.021.03-.18 0-.223s-.085-.021-.073-.129c.005-.064.015-.127.03-.189 0 0-.129.189-.223.669l-.129.532c-.03.052-.202.223-.21.287-.008.116.159.232.172.296.008.107-.15.605-.202.848s-.03.72-.085.965c-.043.223-.085.352-.232.446l.21.051s.15.635-.232 1.175c-.137.189-.171.274-.317.446-.287.317-.51.678-.532.913-.015-.069-.025-.14-.03-.21l-.635.815c-.244.382-.583.36-.678.455s-.116.266-.085.403c-.085.021-.244.051-.352.382-.051.171-.18.339-.382.455s-.446.15-.57.18c.107.03.15.03.202.064-.064.107-.36.274-.69.489-.33.202-.489.497-.57.69-.085.18-.21.296-.412.317.085.051.21.171.274.21-.094.021-.254.021-.54.266-.3.249-.403.322-.54.343h0-.001z" fill="#c39d3c" />
  <path d="M31.082 51.192c.164-.115.342-.209.529-.281.669-.266 1.376-.317 1.655-.403.266-.085.476-.202.806-.266l-.024.213a24.99 24.99 0 0 1-2.968.737h.001z" fill="#d2ba6b" />
  <path d="M43.418 33.601s-.137.742-.382 1.209-.509 1.115-.509 1.115a2.04 2.04 0 0 1 .051-.433l-1.272.806c-.202.18-.54.497-.626.648l.446-1.368a27.56 27.56 0 0 0-2.5 2.195l-2.337 1.891a8.09 8.09 0 0 1-.832.39l-1.23.455a1.95 1.95 0 0 1 .455-.691c.223-.21.892-.935.995-1.272.094-.352.116-.562-.008-.858-.116.03-.382.043-.562.094s-.373.244-.373.244.137-.785.433-1.526c-.223.008-.605.073-.605.073s.532-.892 1.442-1.513a4.69 4.69 0 0 0-.815.253l-1.548.733c.244-.339 1.959-2.787 2.98-5.068s1.398-2.86 1.621-4.082c.116-.605.085-1.498.116-2.298.03-.793.129-1.505.064-1.981.266.33 1.261 1.261 1.295 3.341s-.952 4.888-1.994 6.402c.254.073.914.159 1.591-1.018s.669-1.505.914-1.994c.03.245.021.33.021.33s.987-1.196 1.454-2.701c.094.648.373 1.218-.064 2.406-.39 1.072-.9 1.334-.9 1.334s.253-.043.626-.266c.064.159.052.339.159.403s.253.172.274.274c.116-.172.296-.39.352-.553-.043.339-.073 1.822.085 2.577.33-.03.669-.051.901-.648-.159.583-.159.935-.051 1.432.176-.12.334-.334.334-.334h0l.001.001z" fill="#c0993a" />
  <path d="M32.276 9.965s-.33.137-.892.137c-.489 0-.352-.189-1.115-.189-1.175 0-5.279.678-5.999.669-.468-.008 1.578.202 1.578.202l5.227.073 1.05-.085.39-.794-.24-.013z" fill="#a88f33" />
  <path d="M18.722 20.184s-.669.51-.952.901-.433.647-.755.965a.66.66 0 0 0 .223-.03s0 .085-.051.107a.3.3 0 0 1 .244.085c-.094.051-.352.309-.15.613.15.232.468.253.468.253s-.073.21.232.189c.656-.03 1.389-.317 1.728-.245.339.085.532.116.772.532.254.412.476.476.476.476s.15-.382.116-.952a2.83 2.83 0 0 0 .202-.965l-.223-1.642-.973-1.231-1.261.699-.094.244v.001z" fill="#e3c571" />
  <path d="M19.918 19.939s.094.223.489.244c-.043.094-.043.107-.03.18l.021.18a.4.4 0 0 0 .116-.085c.021.094-.021.244 0 .352a.78.78 0 0 0 .064.189.38.38 0 0 1 .021-.043c.008-.021.085.232.296.424 0-.03.007-.059.021-.085.003.054.021.106.051.15-.016-.008-.03-.018-.043-.03 0 0 .021.678.137 1.029a.48.48 0 0 0 .051-.073c0-.021-.008.189-.03.339-.03.15-.008.36-.008.36.077-.061.162-.111.253-.15.129-.052.339-.21.468-.562.074-.199.132-.404.172-.613.041.08.07.166.085.254.009.107.21.051.21.051l.043-.468.254-1.059.232-.656 1.115-1.736 2.014-1.551 1.758.403 1.483-2.015-2.556-1.535-2.418.253-2.195 3.04-1.758 2.757-.317.455h0 0z" fill="#d8b65b" />
  <path d="M32.585 15.54s-.15.03-.583.254-.733.296-.901.626-.18.592-.18.592.296-.129.468-.172c.18-.043.382-.03.36.043-.021.05-.049.096-.085.137 0 0 .339-.008.33.159s-.064.352-.128.433-.33.21-.36.309c-.073.202.03.21-.009.373-.03.159-.171.468-.635 1.008-.476.54-.678.922-.678.922s-.232-.433-.352-.806l-.54.296-1.055-3.675.021-.245s.094-.116.116-.33c-.159-.051-.18-.094-.39-.296s-.382-.446-.733-.613c-.051-.094-.116-.223-.373-.274l-.412-.094s.137-.052.202-.159c-.159.021-.287.073-.635.064s-.39-.021-.583.008-.424.116-.51-.18c-.094-.073-.296-.008-.468.244s-.232.455-.562.553a1.15 1.15 0 0 1-.15.412c-.094.159-.245.317-.446.553-.317.373-.266.986-.772 1.454s.085-1.295.085-1.295l.815-1.95 2.32-2.268 3.602-.244.352 1.866 1.758.605 1.111 1.694h0l.001-.002z" fill="#d3ae4d" />
  <path d="M33.155 15.951l-1.514-2.182-1.059-.815-.806-1.432c-.043-.03-.755-.107-1.209-.137l.085.21c.099.032.187.092.254.172.202.232.33.669-.129 1.136.18.064.254.085.412.064-.159.189-.519.592-.54.944-.021.287.159.373.159.373s-.274.317-.287.848c.13-.146.271-.281.424-.403a11 11 0 0 1 1.051-.721c-.004.076.006.151.03.223 0 0 .553-.455 1.018-.253.21.094.116.39.116.39s.287-.107.489.094.489.72.635.922c.064.094.232.274.403.553a6.99 6.99 0 0 1 .583 1.231c.008-.172.043-.412.339-.412l-.45-.806h-.002z" fill="#caa13e" />
  <path d="M10.463 22.152s-.107-.266 0-.785.274-.763.33-1.526.553-1.715.553-1.715l1.376-.626.974.266.287 1.304-1.231.678s-.064.287-.412.519-.828.412-.943.648a1.89 1.89 0 0 0-.15.455s-.352-.073-.562.159c-.223.236-.215.446-.223.626v-.001z" fill="#f4efc8" />
  <path d="M13.242 21.805s-.116.073-.202.254c-.085-.137-.287-.952-.296-1.685s-.052-.915.117-1.168.835-.519.74-.974c-.094-.433-.489-.613-.974-.489-.339.085-.592.806-.943 1.166-.266.274-.583.232-.669.382-.116.202-.009.403-.043.532-.009.043-.116.274-.309.553-.39.562-1.05 1.355-1.136 2.067.03-.403.009-.412.116-.858l-.064-.107.424-1.389.274-1.145.613-1.917 1.08-1.959 1.051-1.175 1.093.073.129 1.642.626 3.083 1.316 1.621-2.11 1.42-.836.073h0 .001z" fill="#ebcc73" />
  <path d="M13.898 22.387s-.18.043-.245.009-.128-.073-.107-.116.137-.116.137-.15a.12.12 0 0 0-.107-.129c-.099-.013-.129.051-.129.051s-.094-.073-.171-.085c.045-.006.091-.008.137-.009-.118-.054-.244-.09-.373-.107.107-.064.317-.253.455-.253s.223-.021.202-.094-.129-.18-.244-.223c.043-.051.073-.129-.03-.339s-.064-.352-.03-.403c.03-.064.137-.18.189-.253s.094-.172.18-.223c.043-.03.18-.085.317-.137.15-.051.274-.116.36-.051.094.064.051.15.051.15s.296-.107.562.03c.266.128.914.21.914.21l.232.468-1.535 1.316-.635.317-.129.021h0v-.001z" fill="#e5c66b" />
  <path d="M16.029 20.235l-.583.433c.064.009.171.052.128.116-.051.064-.36.287-.532.497a3.28 3.28 0 0 0-.412.605c-.064.116-.553.455-.72.497.352 0 1.059-.433 1.325-.433-.008.129.073.274.223.287s.583.094 1.166-.266c.583-.352.39-.613.635-.785.468-.309.656-.583.913-.755s.39-.21.39-.21.008-.129.085-.116c.043.005.079.033.094.073 0 0 .446-.317 1.018-.403-.013-.006-.024-.017-.03-.03 0 0 .043-.021.051-.043 0 0 .03-.043.051-.021s.051.18.094.245c.094-.043.274-.446.274-.446l.433-1.239v-1.132l-.339.064-2.544 1.08-1.544 1.6-.18.382h.001z" fill="#e6bd62" />
  <path d="M23.353 14.682a1.44 1.44 0 0 0 .391-.159c-.051.137-.051.287-.274.613s-.232.373-.412.712c-.18.352-.202.858-.373 1.08.077-.037.159-.062.244-.073 0 0-.171.15-.244.309s-.202.489-.519.691-.721.33-1.154.806l-1.102 1.272c.116-.202.274-.605.317-.87s-.009-.583.064-.935.073-.605.424-1.218.952-2.744.952-2.744l1.295-.412.39.926h0v.001z" fill="#b6933f" />
  <path d="M22.418 13.898s-.39.562-.497 1.059-.009.455-.073.699a.91.91 0 0 0 0 .455c.135-.218.32-.4.54-.532.369-.223.669-.382.848-.57.18-.202.33-.532.72-.785-.159-.021-.382-.094-.424-.085.159-.18.635-.455 1.115-.785.476-.339.446-.476 1.218-.815-.253.043-.373-.021-.583 0 .085-.18.382-.266.678-.562s-.189-.733-.189-.733l-2.261 1.368-1.093 1.286.002-.001z" fill="#c49937" />
  <path fill="#dfc068" d="M16.282 12.877l.051-.412.648-1.038.678-1.822V7.114l-.051-1.441.107-.944.081-.3.086-.116.553.287.763 1.038.073 2.003-.742 3.16-2.118 2.311z" />
  <path d="M17.967 4.198s-.339.009-.412 1.42l-.159 2.852c-.051.699-.171 1.123-.232 1.535s-.094.973-.287 1.316c-.085.159-.266.656-.691 1.029a4.26 4.26 0 0 1-1.295.721c-.189.043-1.145.137-1.535.352-.137.073-.373.159-.635.403-.519.467-1.209 1.303-1.707 2.311-.763 1.505-1.526 5.755-1.526 5.755l.172-.287s.021-.382.403-1.051c.373-.669.266-1.419.785-2.701l.763-1.664c.489-.879 1.081-1.634 1.677-2.045.973-.669 2.045-.815 2.045-.815l1.154-.763.468-.836c.373-.626.848-1.325.952-2.341.159-1.505-.223-2.491-.202-3.383s.03-1.548.21-1.707.051-.099.051-.099h0 0z" fill="#a88f33" />
  <path d="M17.967 10.93s.509-1.252.742-2.363l.15-.626c.107-1.051.137-1.484 0-2.058-.107-.424-.519-.806-.733-1.102-.21-.309-.309-.424-.266-.489s.21-.171.373-.159c.35.01.68.163.914.424.33.382.592 1.677.592 1.677l.275 1.709.699 2.153-2.744.836h0v-.002z" fill="#c99e3d" />
  <path d="M22.748 9.627s-.094.043-.266 0c.015.143-.051.282-.172.36-.18-.073-1.866.073-1.866.073s-.785-.137-1.029-1.175c-.171-.691.129-1.642.03-2.268-.15-.922-.36-1.102-.382-1.389l-.043-.54c-.094-.021-.15-.051-.244-.051-.021-.085.021-.159-.073-.309.051.021.403.064.815.455.339.317.339.433.39.497.064.064.583.509.806.952s.656 1.857.755 2.088c.03.094.094.189.254.403.249.309.613.82 1.025.905h0l-.001.001z" fill="#b58634" />
  <path d="M19.97 5.3c.26.42.493.855.699 1.304.253.57.403 1.038.721 1.419l-.656-1.822c-.202-.367-.613-.763-.763-.9h0 0z" fill="#a88f33" />
  <path d="M17.054 12.35s-.433.107-1.239.532l-.763.36c-.635.287-1.316.553-1.857.699l.064.073s0 .21.116.33c-.064.064-.922.648-.669 2.599l.403-.15c.052.009.064.15.129.15s.274-.085.497-.373c-.008.116-.137 1.282.553 2.067.129-.15.455-.648.455-.648l.008-.159s.03-.553.21-1.059.532-.879.532-.879l1.835-2.62-.274-.922h0 .001z" fill="#e6c367" />
  <path d="M15.338 16.197c-.084.059-.177.106-.274.137-.03-.107-.073-.476.18-.836.296-.433.943-.995 1.123-1.442.116-.287.064-1.008 1.094-1.93l1.432-1.239 1.664-.836 2.045.806-1.016 3.983-.789 1.866-3.138-.592-2.321.083h0 0z" fill="#dcba5a" />
  <path d="M16.536 15.115l.39-.489v-.347s.433-.116.9-.592 1.115-1.389 1.685-1.334c.57.064.626 1.239.648 1.57s.094 1.08.21 1.484c.129.403-1.389 1.929-1.389 1.929l-1.031.785-1.413-3.006h0z" fill="#e9ce77" />
  <path d="M17.744 19.185s.317-.497.085-.605c.137-.309.39-.635.39-.635s.18-.446.763-.995.944-.914 1.038-1.282a3.38 3.38 0 0 0 .094-.733 1.39 1.39 0 0 0 .202.137c.094.043.54.412.476 1.154s-.339 1.051-.339 1.051-.266.266-.454.403c-.202.137-.274.296-.613.309.035-.028.074-.049.116-.064 0 0-.352-.043-.54.129s-.59.699-.792.858l-.424.274h0-.001z" fill="#cdae50" />
  <path d="M32.002 10.844c-.507-.185-1.039-.289-1.578-.309-.901-.03-2.217.021-3.508.03-1.389.008-2.65-.476-4.399-.562-.287-.172-1.018-.922-3.298.669.137-.008 1.655-.352 2.182.309s.382 1.771.309 2.037c-.137.592-.583 1.454-.763 2.058s-.137.922-.266 1.346-.412.635-.245 1.123c.223-.137.339-.137.712-.973s.296-1.432.914-2.14c.605-.712 1.611-1.685 1.994-1.93s3.422-1.822 6.604-.317c.767-.081 1.342-1.342 1.342-1.342h0 0z" fill="#d2a83e" />
  <path d="M20.501 10.261c-.003-.032-.01-.064-.021-.094a.69.69 0 0 0-.116-.172s-.755-.137-1.136-.094c-.669.073-1.274.901-1.557 1.325s-.635 1.08-1.016 1.419c.004-.033-.003-.066-.021-.094 0 0 .021.03-.021.073s-.043.064-.021.085l.064.064c.021 0 .613-.266 1.419-1.018.858-.785 1.514-1.187 1.857-1.325a2.61 2.61 0 0 1 .57-.169h0 0z" fill="#c29637" />
  <path d="M35.141 7.037l-.309.36-1.304 1.325-1.368 1.377-1.252 1.419a1.4 1.4 0 0 0-.244.656l-.159-.107c.036.067.079.131.129.189l.36.455c.105.147.181.313.223.489.051.008.382.073.793-.605l.952-1.419.858-1.274.54-1.08.678-1.209.103-.575h0-.001z" fill="#ac8132" />
  <path d="M36.02 6.171s-.519.424-.721.678l-.678.922.172-.021.871-.772.339-.605.017-.202v-.001z" fill="#a88f33" />
  <path d="M35.861 40.247s-.008-.352.189-.562.712-.519 1.209-1.677l.553-1.419s-.892.763-1.442.943l.266-.592c-.073-.064-.382-.137-.412-.171.171-.172.266-.592.613-.871l1.894-1.442c.633-.52 1.878-1.728 2.037-2.08.094.137.116.223.116.223l-.952 1.334c-.287.446-.266.699-.266.699l.592-.254s.171.635-.605 1.6c.339-.129.476-.051.669-.159-.317.202-.755.476-1.166 1.231-.403.755-.952 1.634-1.878 2.182l-1.42 1.012h0l.002.003z" fill="#a67a2e" />
  <path d="M33.537 11.291s-.352.733-.403 1.303c-.008.137-.043.245-.043.403-.008.51.03 1.081-.085 1.346-.043-.107-.064-.18-.107-.223-.064.18-.18.742-.274.952-.043-.137-.137-.613-.128-1.175l.021-.785c-.021.171-.137.403-.18.54l-.223-.39c-.051.085-.116.21-.171.274a3.92 3.92 0 0 1-.043-.382l-.008-.57c.021-.116.202-.57.583-.986.455-.497.922-1.453 1.059-1.749l.72-1.526h.446l-.648 1.475-.592 1.102c-.202.296-.626 1.145-.815 1.475.137-.18.253-.274.39-.446.133-.12.501-.639.501-.639h0-.001z" fill="#8c6228" />
  <path d="M36.028 6.115c-.073.224-.188.432-.339.613-.266.317-.836.742-1.115 1.08-.254.33-.763 1.231-.532 2.298.085-.232.245-.69.669-1.209s.879-1.115 1.102-1.578.253-.836.253-.836l.085-.107-.051-.245-.073-.017h.001z" fill="#cba94c" />
  <path d="M44.711 34.557s-.172-.467-.223-.892.085-.509-.073-.995c-.094-.296-.266-.254-.309-.296s-.073-.489-.064-.733-.008-.562-.051-.699c-.064-.051-.107-.094-.202-.412l-.21-.57c-.051-.094-.202-.18-.202-.274 0-.189.172-.287.172-.339-.008-.107-.137-.021-.172-.051-.043-.051.107-.36.052-.403-.021-.021-.172.159-.21.107s-.094-.562-.172-.901l-.159-.669c-.008-.094-.592-1.758-.733-2.161a10.22 10.22 0 0 1-.287-1.038l-.094-.57c-.021.043-.008.253-.043.245s-.137-.742-.171-.858-.21-.509-.254-.793l-.202-1.548-.094-.848c.011-.313-.007-.625-.051-.935-.085-.54-.254-1.197-.403-1.578l-1.187-3.023c0-.116.15-.051.15-.051l.647 1.655.583 1.42c.051.064.455.772.635 1.929l.352 2.937c.051.339.094.699.202 1.059.116.39.296.793.532 1.411.202.519.352.952.433 1.325.094.476.094.836.15 1.072l.309 1.187.626 1.801c.352.935.509 1.715.562 2.131l.163 2.358h0v-.001z" fill="#a88f33" />
  <path d="M36.05 6.063l-.021.051s.064.021.051.107c.001.118-.006.235-.021.352-.021.15-.064.266-.073.36 0 .202.03.433-.254 1.008-.085.159-.137.296-.18.39-.107.232-.129.266-.223.373.15-.085.691-.424.965-.373-.189.107-.476.317-.656.592.043.008.223.043.509 0 .476-.073 1.008-.245 1.475-.21.51.03.309-.613.309-.613l-.589-1.295-1.115-.784-.176.043h0z" fill="#be9c44" />
  <path d="M38.957 15.763s-.497-.497-.699-2.205c-.202-1.715-.159-4.24-.159-4.24l-.403-.986s-.085-.656-.296-.9l-.815-.858c-.189-.202-.403-.476-.532-.519.064-.107.352-.712 1.453-.72s1.442.605 1.557.828.635 1.187.827 3.025l.159 2.607c-.021.352-.137 1.166-.339 2.037-.184.738-.386 1.561-.755 1.934l.001-.002z" fill="#a17c34" />
  <path d="M37.397 17.225a.84.84 0 0 0 .476-.107c.159-.008.733.064 1.175-.497.03.128.107.476-.094.785.107-.107.266-.15.287-.18.008.159.159.647-.476 1.835.171-.189.373-.18.553-.202.009.223.129.973-.189 1.377-.21.274-.553.189-.553.189a1.08 1.08 0 0 0 0-.18c-.008-.116-.051-.232-.021-.309a1.54 1.54 0 0 1-.446-.309c-.373-.352-.858-.952-.892-1.398-.043-.497.403-.605.403-.605-.037-.033-.069-.073-.094-.116-.021-.073-.043-.189-.129-.283h0 0z" fill="#8c6228" />
  <path d="M34.09 11.831s-.021-.03-.137.107l.051-.39c.055-.115.126-.222.21-.317-.064.128-.107.244-.107.244s.159-.296.39-.476c.159-.129.36-.189.446-.309.094-.129.073-.15.094-.172 0 0 .21-.137.532-.54.043-.051.107-.107.15-.159l.446-.21.592-.339c.287-.129.592-.116.733-.317.107-.03.223-.352.202-.626.159.064.973.57 1.252 1.676.202.785-.159 1.994-.309 2.577s-.171 1.016-.382 1.282c-.266.352-1.123.848-1.334 1.094-.18.202-.72.712-.699 1.08.021.274.36.424.433.476s.073.116.21.085.189-.094.245-.094c.064.008.064.021.094.021a.31.31 0 0 0 .064-.009s-.021.39-.935.509c-.064.009-.129.03-.21.043.107-.051.172-.051.287-.21l-.592-.073a1.14 1.14 0 0 1 .21-.253c.073-.064-.008-.085-.073-.051-.11.075-.216.157-.317.244-.107.094-.202.223-.373.339-.051-.172-.043-.497.159-.733-.052.008-.15.159-.245.129-.017-.156-.007-.315.03-.468.051-.193.33-.532.33-.532l1.346-2.406.287-1.822-3.083.599h0v.001z" fill="#92723a" />
  <path d="M34.017 11.934s-.073.051.073.15c-.021.03-.073.137-.137.21-.073.085-.15.137-.18.21-.064.15-.116.253-.116.317s-.021.476-.202.742c-.064.094-.137.253-.189.36-.107.189-.202.339-.223.424-.043.15-.073.562-.073.562l.129-.159c-.052.107-.107.223-.189.309l.455-.373c.352-.296.901-.793 1.57-1.187-.202.073-.373.073-.51.094.107-.107 1.072-1.239 1.578-1.346.031-.039.046-.088.043-.137l-.433-.043-.879.189-.128-.678-.588.356v.001z" fill="#b18e3e" />
  <path d="M35.415 15.793s-.116.116-.223.403a1.35 1.35 0 0 1-.21-.287c-.159-.266-.403-.605-.973-.412-.008-.18-.021-.274 0-.403.094-.021.382-.253.669-.592.202-.232.39-.497.519-.836l.424-.296c.274-.189.605-.446.656-.733-.129.051-.403.18-.815.159.159-.073.403-.15.373-.468l.116-.073c-.048-.016-.099-.023-.15-.021-.009-.03-.021-.073-.094-.051s-.085.021-.094.051c-.03.009-.129 0-.202.052s-.274.223-.352.253l.073-.128s-.21.021-.36.085c-.274.094-.592.266-.913.433.03-.051.043-.085.064-.094s.073-.021.073-.03-.021-.085-.008-.116c.096-.204.21-.399.339-.583.15-.202.18-.489.18-.489l.656-.33 1.844-.424 1.197.073-.15.828-.707 1.445-.605 1.316-.691.806-.635.463h0 0z" fill="#543e26" />
  <path d="M38.404 12.211s-.721.892-.922 1.029l1.209-2.363c-.064-.051-.15-.051.051-.848-.171.403-.232.613-.373.72s-.159.073-.254.073a.18.18 0 0 0 .021-.107l-1.018-.073c-.413 0-1.23.223-1.685.403-.36.15-.562.15-.69.244-.129.107-.202.223-.266.253-.051.03-.296.107-.352.189s-.137.18-.137.202-.021.052.043.03a5.91 5.91 0 0 0 .36-.202l.755-.39c.613-.245.806-.202 1.08-.253.287-.051.699-.172.973-.172.274-.008.793 0 .914.021-.051.043-.094.094-.073.274 0 .051-.043.107-.085.232l-.509 1.231c-.189.403-.403.742-.509.952s-.339.763-.57 1.059l-.424.54c-.072.064-.592.446-.553.583.094-.03.691-.254 1.123-.742s.519-.785.858-1.051.605-.712.763-1.08c.133-.343.103-.45.27-.755h0l-.001-.001z" fill="#806031" />
  <path d="M22.877 18.867s-.094.39-.309.583-.583.352-.626.669c-.051.317.373.476.373.476s-.232.382-.232.669c0 .296-.008.352.021.635-.034.022-.063.051-.085.085a.7.7 0 0 0 .232.446c.21.171.39.274.497.232a1.01 1.01 0 0 1 .043.107l.266-.755c.107-.36.202-.309.244-.793s.509-1.316.509-1.316l.318-.711-.519-.403-.733.077h0z" fill="#b6903c" />
  <path d="M23.842 19.566a3.12 3.12 0 0 0-.295.352c-.137.189-.244.36-.446.433s-.33.073-.317.274.202.287.309.39c.116.107.21.287.159.489.064-.03.18-.064.287-.296l.856-1.642h-.553 0z" fill="#685026" />
  <path d="M26.797 16.312s.064-.171 0-.296-.455-.172-.648-.317c-.202-.15-.446-.254-.648-.189.03-.073.15-.232.051-.266s-.446.129-.54.202-.309.159-.352.21-.116.15-.159.107c-.043-.03-.064-.107-.137-.064s-.424.33-.489.497-.21.54-.648.965-.626.699-.497.858.189.043.21.18.009.271-.021.403c-.051.223-.137.433-.021.476.296.094.583-.085.648-.03.129.116-.073.532.232.613s.613-.073.613-.073l1.123-.605 1.081-.57.553-1.094-.297-.913-.057-.094h.002z" fill="#d4b968" />
  <path d="M25.737 18.923s-.189-.287.043-.54.562-.36.69-.519c-.024-.03-.057-.053-.094-.064.085-.153.216-.276.373-.352-.064-.064-.15-.116-.244-.116-.21 0-.339.129-.532.129s-.21-.094-.21-.094.317-.03.287-.172c-.03-.15-.085-.15-.085-.15s.613-.254.72-.39.094-.296.116-.36c.073 0 .497-.223.669-.129s.051.352.051.352.519-.39.784-.773c.232.021.339-.159.509-.159.21 0 .54.287.605.9.043.352.107.553.043 1.175-.03.352-.021 1.102.085 1.475.073.296.244.266.244.266a.48.48 0 0 1-.15.232c-.116.107-.129.39-.116.497a2.12 2.12 0 0 0 .064.232s-.137.159-.172.266-.171.18-.274.18-.051-.009-.189 0-.18.03-.266 0-.15-.064-.116-.339-1.059-.913-1.059-.913l-1.781-.635h0l.004.001z" fill="#cca849" />
  <path d="M23.691 21.633s.39.519 1.994.519c.763 0 1.029-.073 1.187-.116.172-.043.815-.296 1.462-1.059.583-.69.455-.973.455-.973l-.339-.051-1.102.15-3.262 1.389-.396.141h.001z" fill="#585136" />
  <path d="M24.888 21.762s-1.389.309-1.389-.57c0-.858.858-1.758 1.072-1.917.223-.159.755-.339.755-.339h1.282l.244.648-.107 1.398-1.857.78h0z" fill="#252211" />
  <path d="M26.17 19.198s-.266-.245-.87.085-1.094 1.018-1.124 1.643c-.03.553.455.965 1.209.986.562.021.901-.043 1.072-.085l-.266-.33-.021-2.298h0 0z" fill="#c3b378" />
  <path d="M25.908 19.334s-.064-.051-.254.051c-.159.085-.39.309-.57.468-.116.094-.189.137-.254.21-.266.317-.489.836-.36 1.094s.553.553 1.634.352l-.198-2.174h0 .003z" fill="#e6d89c" />
  <path d="M25.557 19.866s-.172.266-.172.691c0 .433.245 1.123 1.145 1.175.69.043 1.153-.995 1.655-1.398.382-.309.613-.317.613-.317s-.39-.424-1.432-.973c-1.029-.553-2.183-.626-2.809.223.296-.021 1.252-.266 1.252-.266l.468.15-.721.716h0 0z" fill="#252211" />
  <path d="M27.07 20.474c-.052-.068-.089-.159.126-.181s.311-.009.385.09.147.181.037.222-.4 0-.548-.131v.001zm-.348-.639s-.074.032-.037-.032c.015-.077.111-.213.348-.181s.186.19.147.236-.237.122-.385.09c-.038-.006-.069-.023-.084-.045s-.011-.048.01-.068l.002.001z" fill="#6f674d" />
  <path d="M15.094 20.098s.339.254.733.245.892-.412 1.123-.669l.382-.433c.107-.107.18-.159.232-.232.073-.085.15-.244.189-.296-.094.073-.232.202-.373.287s-.433.244-.553.287-1.316.678-1.316.678l-.416.132h0z" fill="#ac924c" />
  <path d="M15.613 16.929s.189-.129.553-.21c.352-.085 1.059-.15 1.059-.15l.583.254.232.879-.424.914-.54.339-.613-.986-.848-1.038h0l-.001-.002z" fill="#9f8e57" />
  <path d="M14.85 17.714l-.202.151s.052-.094.094-.382.266-.986.592-1.389l.317-.382c-.061-.011-.123.004-.172.043.043-.095.317-.434.592-.604s.382-.223.669-.085.36.21.57.202.39-.232.39-.232.043.137-.116.455-.785.965-.785.965l-1.304.892-.648.367h0v-.001z" fill="#eac970" />
  <path d="M15.814 16.822s.944.129 1.231-.137c.008.03.043.03.043.051-.002.016-.01.031-.021.043a.69.69 0 0 1 .094-.008c.038.011.077.018.116.021a.67.67 0 0 0 .094-.009.16.16 0 0 1-.064.107c.043 0 .085.008.085.043s.008.137-.043.159c-.043.012-.088.009-.129-.009a.53.53 0 0 0 .064.232c.085.159.266.339.509.287 0 0 .128.309-.412.995l-.244.33c-.037.081-.066.166-.085.253 0 0 .914-.352 1.175-1.154s.317-1.599.266-2.341c-.009-.21-.043-.36-.094-.468-.129-.266-.489-.223-.635-.073-.21.21-.562.733-1.051 1.093-.497.36-.519.424-.901.583h0 .001z" fill="#d7bc6b" />
  <path d="M14.682 17.98s-.18.107-.274.509c-.094.412.085.913.189 1.072s.339.592.828.613c.121-.001.24-.025.352-.073.171-.078.33-.178.476-.296.21-.159.382-.296.36-.309-.051-.021-1.295-1.051-1.295-1.051l-.468-.522-.167.057h0z" fill="#585136" />
  <path d="M15.858 19.686s.253-.021.403-.116-.879-1.115-.879-1.115l.073 1.102.403.128z" fill="#453a25" />
  <path d="M14.764 17.902s-.129.245-.129.309c-.021.21.043.87.094 1.08.051.223.33.562.691.562.223 0 .532-.137.532-.171 0-.043-.317-.085-.403-.245-.051-.085-.073-.296-.085-.509-.008-.137-.008-.287.043-.339.116-.129.137-.497.137-.497l.412-.765h-.541l-.648.403-.103.172z" fill="#84754b" />
  <path d="M14.605 18.138s.424-.562.806-.691.553-.051.553-.051l-.223.57-.317.352.021.18s-.052.476.266.806.553.317.691.317.532-.116.733-.592c.18-.446.33-1.018-.03-1.591-.352-.57-.974-.592-1.094-.592s-1.063.047-1.406 1.291h0 0z" fill="#252211" />
  <path d="M25.492 20.046c-.159-.073-.008-.519.15-.656s.36-.296.712-.317c.128-.008.253.073.232.159-.03.159-.253.382-.455.54-.279.219-.459.356-.639.274z" fill="#f7f7e7" />
  <path d="M16.916 17.615c.116-.008.266.085.296.21.03.137-.073.412-.296.412-.18 0-.274-.223-.274-.287.002-.053.017-.104.043-.15.008-.013.03-.163.232-.185h0z" fill="#f8f6de" />
  <path d="M15.244 17.714s-.296.137-.433.424c-.098.212-.128.449-.085.678.021.107.129.373.202.467s.172.159.245.15.223-.202.223-.317.009-.605.15-.871c.124-.266-.3-.532-.3-.532h0-.001z" fill="#d4c38b" />
  <path d="M15.287 17.692c-.051.03-.137.073-.116.129s.202.085.266.21a.45.45 0 0 1 .051.33.52.52 0 0 0 .15-.107c.094-.107.21-.253.309-.253.064 0 .129.03.189.03.094 0 .189-.03.202-.129.021-.129-.18-.245-.296-.223.021-.085.051-.21-.043-.296s-.39.064-.455.107-.257.202-.257.202h0 0z" fill="#e2d59d" />
  <path d="M22.101 26.702l.635-.187.18.129s.128.274.33.309c-.064.137-.232.254-.223.352s.094.172.094.172-.57.943.553 1.894l-.785.339c.128.03.403.085.519.189s.116.137.223.202.171.15.15.189c-.073-.043-.317-.171-.36-.051s-1.059.073-1.059.073l-1.715.33s.064-.172-.116-.33c-.21-.189-.467.008-.742-.202-.36-.274-.373-.592-.489-.712.116-.073.352-.18.913-.254-.021-.043-.094-.172-.051-.287.051-.15.266-.245.202-.424.094-.021.137-.021.373-.317.223-.296.36-.36.532-.382s.274 0 .592-.296c.223-.21.15-.39.15-.39s.146-.047.094-.343h0v.001z" fill="#cbac5a" />
  <path d="M20.227 26.797c.008-.043.043-.064.274-.043s1.698-.137 2.097-.159c.403-.03 1.822-.009 2.513.137l1.728.403c.339.094.446.128.433.171s-.085.085-.129.073-1.166-.352-1.513-.424-1.548-.266-2.205-.254c-.613.009-.858-.008-1.376.051s-1.377.15-1.634.116-.202-.03-.189-.073h0l.001.001z" fill="#d6bc6f" />
  <path d="M23.678 30.158s.879.476 1.197 1.059c.232.433-.137.648-.137.648s.497 0 .433.274c-.03.171-.858.634-1.411.879-.562.245-.54.232-.815.274-.266.043-.995-.085-1.145.129s-.085.433-.043.468.39.073.39.073-.073.202-.793.223-.901.073-.944.15.137.03.468.085l.793.085s-.15.129-.54.232c-.446.116-1.145.223-1.355.352.107.073.266.18.339.189-.18.043-.433.137-.476.172l.15.094s-.36.433-.57.54-1.419.669-1.835.562c-1.038-.274-1.166-1.411-1.419-1.496-.382-.129-.562.128-.901-.052.15-.107.232-.171.39-.244-.172-.085-1.059-.648-1.059-.648a6.58 6.58 0 0 0-.309-.592l-.613-1.038c-.412-.763-.433-1.115-.806-1.548.064-.085.287-.073.287-.073l3.126 1.029 5.543.161 1.442-2.058.613.073h0z" fill="#dfc677" />
  <path d="M15.467 33.296c.033.037.072.069.116.094.107.073.266.159.373.287.043-.064.15-.18.339 0s.424.052.57.094c.15.052.159.073.159.073s.085-.073.274-.15c.116-.043.253-.073.403-.116.137-.03.287-.073.39-.073.094.064.433.424 1.792-.107 1.282-.497 1.578-.553 1.792-.476.021-.051.043-.15.373-.137 0-.137-.274-.605-.274-.605l-1.514-.519h-.828l-2.483.455-1.376.785-.107.396-.001-.002z" fill="#c4a859" />
  <path d="M14.639 32.426s.03.232.373.476.446.39.446.39.064-.085.116-.171c.051-.094.094-.202.18-.232.172-.073.562.064.648.043.073-.021.051-.171.129-.171.18-.009.296.116.36.116s.223-.008.244-.043.03-.39.274-.562c.266-.189.592-.107.678-.064 0 .064.008.223.18.232s.189-.021.339.03.33-.008.412.244c.073-.021.245-.043.202-.287.085-.064.159-.107.339-.36.043-.064.116-.137.172-.232.15 0 .33-.03.57.18-.073.051-.116.085-.137.137a1.54 1.54 0 0 1 .171.202c.064.085.107.189.189.21.18.051.476-.021.806 0 .317.021.583.137.699.21.043-.021.043-.03.15-.008s.189.03.073-.107c.064.03.137.094.202.03s.116-.159.296-.18.245.008.317-.18c.094-.232-.232-.232-.232-.232l.317-.317c.202-.189.433-.433.489-.733.094-.553-.446-.626-.446-.626l-2.62.806-3.203-.159-2.731 1.359h0-.002z" fill="#927d49" />
  <path d="M12.285 24.858s-.085.107-.137.36l-.073.403c-.043.18-.571 1.972-.373 2.577s.54.828.755 1.316c.043.107.085.172.107.266.073.317.009.562.094.879.03.107.107.232.223.36.254.266.669.519.848.699.253.266.613.806 1.072.858.245.03.592-.073.879-.244.254-.159.412-.382.678-.509.189-.094.39-.129.57-.172.373-.073.712-.085.914-.043.309.064 1.038.287 1.442.287a3.92 3.92 0 0 0 .935-.129l1.844-.626c.287-.085.519-.107.755-.159.403-.094.742-.223.935-.468-.129-.15-.287-.382-1.145-.373-.973.021-2.097.562-2.65.648s-.793.159-1.411-.064c-.605-.225-.626-.374-.626-.374s-.636-.445-.902-1.578 0-1.959.691-2.744c.18-.202.137-.382.137-.382s.455-.613.33-1.187c-.137-.57-1.016-.455-1.016-.455l-4.875.853h0 0z" fill="#6e6342" />
  <path d="M13.018 26.766c-.038.071-.056.151-.051.232.008.116.043.266.39.605.296.296.232.626.232.626s.149.03.553-.159c.317-.15.424.116.424.116.092-.048.193-.08.296-.094a.65.65 0 0 0 .266-.085s.373.382.699.562c.296.159.468.266.613.159.137-.094.137-.287.128-.373-.034-.079-.077-.154-.128-.223-.094-.137-.245-.296-.254-.424-.021-.296.223-.648.171-.733s-.244-.107-.72.064c-.493.163-2.62-.27-2.62-.27h0l.002-.001z" fill="#39331f" />
  <path d="M14.142 28.683s-.244-.232-.159-1.355c.104-.002.207.009.309.03 0 0 .133.871-.15 1.325z" fill="#292311" />
  <path d="M12.401 24a.67.67 0 0 0 .094-.085c-.085.159-.476.793-.159 1.792s1.115 1.736 2.097 1.771 1.498-.446 2.088-1.166l.733-.892c.352-.382.626-.489.626-.858 0-.755-.772-1.094-1.908-1.432s-2.161-.297-2.693-.065c-.519.253-.742.519-.879.935h0 0z" fill="#252211" />
  <path d="M16.05 29.021l.085-.043s.021-.339.159-.33c.137.021.202.202.189.266s-.043.172-.18.159c-.18.004-.253-.051-.253-.051h.001z" fill="#3f3824" />
  <path d="M15.668 27.581s.085-.03.189.073c.085 0 .455-.043.57.03s.15.137.15.137-.433.094-.669 0c-.24-.081-.24-.24-.24-.24h0z" fill="#2d2815" />
  <path d="M17.577 27.645c0-.021-.232-.18-.476-.232-.043-.008-.052.021-.085.021-.021-.008-.03-.073-.03-.073l-.139.073s-.021.03.051.085c.064.051.172.094.202.18s.03.116.043.129a.46.46 0 0 0 .232-.043c.073-.043.21-.113.202-.141h0l.001.001z" fill="#82764f" />
  <path d="M15.411 28.515s.043-.296.33-.309c.296-.021.352.266.352.266l-.172.172c0-.004-.129-.184-.509-.129h-.001z" fill="#2d2816" />
  <path d="M17.277 27.242s-.159.172-.51.223c-.03-.043-.094-.129 0-.266s.202-.18.309-.137a.25.25 0 0 1 .202.18z" fill="#574f35" />
  <path d="M17.924 27.715c.009-.064-.021-.077 0-.109s.137-.096.159-.064c.008.013 0 .064 0 .127s0 .127-.021.173c-.03.064-.116.097-.159.078s-.051-.109-.051-.127c.021-.013.073-.045.073-.077zm.732-.694c0-.032.073-.097.116-.097.064 0 .064.077.073.097.021.013.021-.013.043.045s.052.161.03.225-.107.109-.128.096c-.03-.032-.124-.321-.133-.366h0z" fill="#82764f" />
  <path d="M17.182 27.551s.094.021.223.129c-.043.03-.107.064-.107.064s-.008-.099-.116-.193h0z" fill="#6e6342" />
  <path d="M16.972 26.607c-.022-.021.066-.073.118-.064s.075.043.131.051.066-.021.087-.043.096-.008.109 0a.24.24 0 0 1 .022.03c.002-.033.018-.064.044-.085.034-.024.078-.032.118-.021.009.03.053.137.044.159s-.14.052-.162.03c.022.052.118.159.131.18s-.096.073-.14.064a1.8 1.8 0 0 1-.504-.3l.001-.001zm.574-.712a.1.1 0 0 0-.044-.051c-.031-.008-.131 0-.131.051a1.57 1.57 0 0 0 .184.489c.11.15.184.274.259.309.049.022.106.003.131-.043.009-.021.031-.18.022-.553l-.044-.755a.12.12 0 0 0-.14.021c-.031.043-.228.468-.237.532h0 0z" fill="#585136" />
  <path d="M17.152 28.091s-.15-.094-.296-.03c-.137.064-.129.317-.129.317.063.025.133.016.189-.021.094-.064.214-.171.236-.266h0z" fill="#574f35" />
  <path d="M17.435 28.43c-.008-.085-.085-.085-.085-.129.011-.043.05-.073.094-.073s.085.051.137.085.129.085.137.15-.085.244-.189.244-.073-.193-.094-.279l-.001.001zm.828-.116s-.172.051-.159 0 .052-.064.107-.064a.17.17 0 0 1 .107-.052c.023-.001.046.007.064.021 0 0 .116-.051.15-.021s.009.03.03.064c.027.038.045.082.052.129 0 .034-.129.107-.232.094-.12-.026-.099-.15-.12-.172h0zm.999-.193s.051.03.009.064c-.03.03-.18.085-.309.094-.129 0-.244.021-.244-.021s.107-.129.171-.15c.026-.033.066-.052.107-.051.051 0 .253-.021.309-.03s.094.021.064.064c-.013.03-.107.03-.107.03h0zm.296-1.324s-.064.137-.137.137c-.073-.008-.073-.03-.073-.051 0-.03.073-.107.064-.129-.021 0-.073 0-.064-.051 0-.043.073-.094.137-.085.048-.04.109-.062.172-.064.073 0 .137.021.137.064s-.085.137-.116.159c-.034.034-.077.057-.12.021v-.001zm-.978 2.534s-.085.009-.085.051c0 .021.021.021.051.009.017-.001.035-.004.051-.009.008.009.008.051.073.051.053-.007.104-.025.15-.051.051-.021.094-.043.094-.085-.021-.073-.064-.107-.129-.107-.033-.002-.066.005-.094.021 0 0-.021-.043-.094 0s-.064.043-.043.064c.038.034.026.057.026.057l-.001-.002zm-.484.446c0-.021.107-.064.137-.051s.116.171.116.189-.107.073-.15.073a.2.2 0 0 1-.116-.085c0-.008.051-.021.051-.03.013-.021-.038-.073-.038-.094v-.001zm-.339-.626c.021-.008.021-.03.051-.051.019-.013.043-.016.064-.008.015-.027.042-.046.073-.052.051-.008.094 0 .085.021 0 .064.043.107.043.159s-.03.116-.137.159a.76.76 0 0 1-.274.021c-.021-.008-.043-.094-.021-.137s.081-.09.116-.111h0 .001z" fill="#82764f" />
  <path d="M17.893 29.18s-.073.043-.073.064a.19.19 0 0 0-.008.064c0 .013.094-.008.107-.021.004-.008-.026-.085-.026-.107z" fill="#6e6342" />
  <path d="M17.255 28.978c.043.009.116 0 .171.021.043.021.073.064.03.116s-.085.129-.18.116c-.107-.008-.21-.064-.21-.107-.004-.055.015-.109.051-.15.043-.034.064-.013.137.004h0 0z" fill="#585136" />
  <path d="M17.204 29.021s-.137.107-.172.159l-.317.373a.81.81 0 0 1 .073-.107.44.44 0 0 0-.18.232c-.051.159.287.245.51.309l.309.085c-.082-.123-.152-.254-.21-.39-.085-.202-.129-.223-.073-.317.043-.094.107-.159.107-.232l-.047-.111z" fill="#574f35" />
  <path d="M12.315 29.36a.26.26 0 0 0 .094 0c.064-.009.733-.254 1.432-.21a7.66 7.66 0 0 1 1.548.254c.879.232 1.972.69 2.68.952.189.073.373.202.509.253.54.21.562.21.879.266.373.051.755-.073 1.154-.159.489-.107 1.325-.159 2.058-.266.237-.033.471-.086.699-.159 0 0-.583.583-1.981.793a6.2 6.2 0 0 1-1.706.021c-.446-.043-.742-.107-.965-.172l-1.411-.424c-.446-.116-.944-.202-1.514-.309-1.407-.258-2.933-.553-3.477-.84v-.002z" fill="#252211" />
  <g fill="#cfb66c">
    <path d="M10.737 26.71l-1.05.827-1.059.814-1.072.806-1.102.763 1.059-.815 1.081-.783 1.059-.815 1.085-.797v-.001zm-1.874 3.002l.858-.763 1.548-1.389-2.406 2.153h0z" />
    <path d="M8.863 29.712l.592-.553.309-.266.296-.274.562-.583c.093-.097.192-.189.296-.274a.8.8 0 0 1 .171-.116c.052-.03.107-.085.18-.094-.043.064-.094.094-.137.15-.051.043-.094.094-.137.137-.094.094-.202.18-.296.266l-.613.519-.592.553-.63.537v-.001zm2.564-1.715l-1.685 1.591 1.685-1.591z" />
    <path d="M11.428 27.996c-.126.146-.261.283-.404.412l-.424.403-.412.412-.446.373.412-.403c.137-.137.287-.253.433-.39l.412-.403.429-.403h0zm.064.742c-.129.36-.281.711-.455 1.051l-1.136 2.08 1.591-3.131z" />
    <path d="M11.492 28.738c0 .159-.043.296-.094.433a4.26 4.26 0 0 1-.171.403l-.21.39-.223.382-.433.763-.455.755c.107-.274.253-.532.39-.785l.424-.772.18-.403.18-.39.18-.39c.073-.133.133-.262.232-.386h.001z" />
  </g>
  <path d="M13.018 32.255s-.424.562-.382 1.273l.382-1.273zm.403.563l-.274 2.277c.176-.868.21-.795.274-2.277zm2.809 2.367s-.635 1.866-.648 2.384l.648-2.385v.001z" fill="#dec270" />
  <path d="M17.714 32.139l1.801 3.147c-.209-.729-.689-2.067-1.801-3.147z" fill="#cbaf59" />
  <path d="M20.48 34.639a31.22 31.22 0 0 1 1.526 3.083c-.086-.729-.317-1.977-1.526-3.083z" fill="#e3c677" />
  <path d="M28.61 37.142c.171-.107.51-.691.806-.836s.519-.18.785-.476c.266-.309.339-.497.922-.742.815-.352.254-.806.254-.806a2.63 2.63 0 0 1 .287-.244c.21-.159.455-.352.433-.691-.03-.57-.137-1.398-.605-1.878l1.866-.296c.626-.159.913-.382.913-.382s-.36-.613.223-1.23 1.059-.986 1.411-1.677c-.403-.051-1.018-.266-2.586.33a1.97 1.97 0 0 1 .245.137s-.965.266-1.316.562c-.613.519-.691.943-1.355 1.261s-1.334.232-1.887.489-.635.476-.836.57c.043.051-.008.137.073.21-.051.073-.352.562-.656.562.03.116.287.202.287.202s-.189.137-.669.172c.244.254.476.532 1.115.935-.051.107-.266.266-.18.468.094.202.339.476 1.316.699-.497.021-1.08.137-1.866.03-.785-.094-.913-.15-1.398-.03.051.051.189.051.309.189-.129.008-.935-.094-1.209.266-.287.373-.412.986-.39 1.398-.15.073-.296.202-.223.468s.455.352.699.519c.244.18.266.244.497.202.244-.051.604-.296.815-.296a.55.55 0 0 1 .36.159s.57-.274.626-.223.008.382.064.433c.057.039.699-.343.871-.45h-.001z" fill="#ecd592" />
  <path d="M41.075 19.982c-2.68-6.921-9.305-8.203-9.305-8.203H12.868l.073 7.049h3.764V34.57h-3.837v7.037h18.379c4.429 0 7.98-4.451 7.98-4.451 5.686-8.07 1.848-17.173 1.848-17.173h0zm-9.73 12.431s-1.442 2.08-3.01 2.08h-3.138l-.074-15.647h4.027s1.866.39 3.169 4.082c0 0 1.728 5.286-.974 9.485h0z" fill-opacity=".8" fill="#fff" />
</svg>