<?xml version="1.0" standalone="no"?>
<!DOCTYPE svg PUBLIC "-//W3C//DTD SVG 20010904//EN"
 "http://www.w3.org/TR/2001/REC-SVG-20010904/DTD/svg10.dtd">
<svg version="1.0" xmlns="http://www.w3.org/2000/svg"
 width="512.000000pt" height="512.000000pt" viewBox="0 0 512.000000 512.000000"
 preserveAspectRatio="xMidYMid meet">
<metadata>
Created by potrace 1.14, written by Peter Selinger 2001-2017
</metadata>
<g transform="translate(0.000000,512.000000) scale(0.100000,-0.100000)"
fill="#000000" stroke="none">
<path d="M2514 5062 c6 -10 2 -13 -15 -12 -13 1 -28 1 -34 0 -5 -1 -25 -1 -43
0 -18 1 -40 -4 -49 -12 -12 -9 -15 -9 -9 0 4 6 3 12 -1 12 -5 0 -15 -6 -22
-12 -11 -11 -12 -10 -6 1 6 10 4 12 -5 6 -7 -4 -36 -10 -64 -12 -28 -2 -66 -8
-84 -13 -19 -5 -40 -6 -48 -3 -8 3 -14 -1 -14 -8 0 -9 -3 -10 -11 -2 -8 8 -18
7 -36 -2 -14 -7 -34 -12 -44 -10 -11 2 -19 -1 -19 -6 0 -6 -6 -9 -12 -6 -7 2
-30 -2 -52 -9 -21 -8 -42 -11 -47 -8 -5 3 -9 1 -9 -4 0 -5 -6 -9 -12 -10 -15
-1 -53 -10 -53 -12 0 -1 -9 -3 -19 -5 -10 -2 -22 -9 -26 -15 -6 -9 -9 -9 -13
1 -4 11 -6 11 -6 1 -1 -7 -5 -10 -11 -7 -5 3 -10 1 -10 -4 0 -6 -5 -11 -11
-11 -5 0 -7 5 -4 11 4 6 -2 5 -14 -3 -12 -7 -21 -16 -21 -20 0 -4 -9 -5 -20
-3 -11 2 -20 -1 -20 -6 0 -6 -4 -7 -10 -4 -5 3 -10 1 -10 -5 0 -7 -7 -10 -15
-6 -8 3 -15 1 -15 -4 0 -6 -9 -10 -20 -10 -11 0 -20 -5 -20 -11 0 -5 -4 -7
-10 -4 -5 3 -10 2 -10 -4 0 -5 -10 -8 -21 -6 -12 3 -19 2 -16 -2 8 -8 -42 -35
-53 -28 -4 3 -11 -2 -14 -11 -4 -9 -9 -14 -12 -11 -4 3 -13 -1 -21 -9 -9 -8
-22 -13 -30 -10 -8 3 -11 1 -8 -4 3 -6 1 -10 -5 -10 -6 0 -8 -5 -4 -12 5 -7 3
-8 -5 -3 -15 9 -63 -14 -55 -26 3 -5 -2 -6 -10 -3 -9 3 -16 1 -16 -5 0 -6 -7
-11 -15 -11 -7 0 -18 -8 -24 -17 -5 -10 -13 -15 -17 -11 -4 4 -18 -4 -31 -18
-13 -15 -27 -24 -30 -21 -6 6 -21 -5 -58 -43 -14 -14 -25 -22 -25 -18 0 6 -20
-9 -77 -59 -14 -13 -30 -23 -35 -23 -5 0 -6 -4 -3 -10 3 -5 0 -10 -9 -10 -8 0
-24 -12 -36 -27 -12 -16 -18 -21 -14 -13 7 13 5 13 -9 1 -9 -7 -14 -18 -10
-24 4 -6 0 -8 -10 -4 -11 4 -17 1 -17 -8 0 -8 -9 -19 -19 -25 -11 -5 -23 -19
-26 -30 -4 -11 -10 -18 -14 -15 -9 5 -57 -46 -53 -57 2 -8 -13 -12 -31 -9 -4
0 -6 -2 -6 -6 4 -22 -3 -33 -18 -33 -14 0 -15 -2 -4 -9 11 -7 9 -10 -7 -15
-12 -4 -24 -16 -27 -27 -4 -10 -14 -19 -23 -19 -15 0 -15 -2 -2 -10 13 -8 12
-10 -2 -10 -10 0 -18 -7 -18 -15 0 -8 -4 -15 -9 -15 -5 0 -26 -27 -47 -59 -21
-33 -43 -57 -48 -54 -5 4 -7 2 -4 -3 3 -5 -3 -25 -13 -44 -11 -19 -19 -30 -19
-25 0 5 -11 -10 -24 -35 -13 -25 -22 -49 -18 -54 3 -5 0 -6 -6 -2 -6 3 -24
-21 -43 -61 -18 -38 -35 -70 -38 -73 -3 -3 -7 -12 -9 -20 -2 -8 -10 -22 -18
-31 -8 -8 -14 -25 -14 -37 0 -12 -5 -22 -10 -22 -6 0 -9 -6 -8 -12 2 -7 -3
-12 -11 -10 -12 3 -12 0 -1 -12 10 -13 10 -16 0 -16 -7 0 -10 -8 -7 -19 3 -14
1 -18 -9 -14 -9 3 -12 -2 -9 -16 2 -12 -1 -21 -6 -21 -6 0 -7 -4 -4 -10 3 -5
0 -10 -7 -10 -10 0 -9 -3 2 -10 13 -8 12 -10 -1 -15 -9 -3 -16 -12 -17 -20 -1
-8 -3 -22 -4 -30 -1 -8 -6 -15 -11 -15 -5 0 -6 -7 -3 -15 3 -9 1 -25 -4 -35
-6 -11 -15 -29 -21 -41 -8 -17 -8 -19 3 -13 11 6 11 5 0 -9 -8 -9 -11 -21 -8
-26 4 -5 -2 -14 -11 -20 -12 -7 -13 -10 -4 -11 9 0 10 -4 4 -12 -6 -7 -10 -25
-9 -40 1 -14 -2 -24 -6 -22 -8 5 -10 -10 -11 -63 -1 -13 -4 -23 -7 -23 -4 0
-7 -6 -7 -12 -1 -7 -4 -38 -8 -68 -3 -30 -6 -63 -6 -73 0 -9 -5 -15 -11 -11
-6 4 -7 0 -1 -12 10 -23 10 -45 -1 -62 -4 -7 -2 -20 6 -29 9 -12 9 -15 0 -9
-16 10 -16 -25 1 -43 9 -11 9 -13 0 -7 -15 8 -15 7 -14 -163 1 -82 6 -130 14
-140 9 -12 9 -13 -1 -7 -16 9 -16 -6 1 -23 10 -11 9 -12 -3 -6 -13 8 -13 6 -2
-7 9 -11 10 -18 2 -23 -6 -3 -7 -12 -3 -18 9 -14 12 -32 15 -74 0 -18 4 -33 7
-33 3 0 6 -15 5 -32 0 -18 5 -39 10 -47 9 -12 8 -13 -4 -6 -13 8 -13 7 -1 -8
7 -9 10 -17 6 -17 -4 0 -2 -7 6 -16 10 -13 10 -17 0 -24 -10 -5 -10 -9 -2 -11
7 -3 13 -16 15 -30 1 -13 5 -30 9 -36 4 -6 8 -23 9 -37 1 -14 6 -26 10 -26 4
0 7 -3 7 -7 -4 -27 3 -63 11 -58 6 4 9 -3 7 -16 -2 -12 3 -35 11 -51 7 -16 15
-37 17 -46 2 -9 4 -19 5 -22 1 -3 2 -9 1 -13 -1 -4 6 -10 15 -14 13 -5 13 -7
2 -14 -10 -7 -10 -9 0 -9 6 0 12 -9 12 -20 0 -11 4 -20 10 -20 5 0 7 -7 4 -15
-4 -8 -1 -15 6 -15 6 0 8 -5 5 -10 -3 -6 -1 -10 5 -10 6 0 8 -4 5 -10 -3 -5
-1 -10 6 -10 7 0 9 -3 6 -7 -4 -3 5 -26 19 -50 14 -24 22 -48 19 -53 -3 -6 1
-10 10 -10 9 0 14 -4 10 -9 -3 -5 2 -17 11 -25 8 -9 12 -16 8 -16 -4 0 1 -9
11 -20 10 -11 15 -20 12 -20 -6 0 31 -62 53 -88 6 -6 7 -12 3 -12 -4 0 0 -5
10 -11 17 -10 34 -41 35 -63 0 -5 5 -12 10 -15 23 -14 71 -84 65 -94 -3 -6 -1
-7 5 -3 7 4 12 4 12 -1 0 -9 59 -81 102 -125 14 -16 24 -28 22 -28 -3 0 22
-27 55 -59 33 -32 57 -62 54 -65 -4 -3 0 -6 9 -6 8 0 24 -11 36 -25 13 -14 28
-23 34 -19 6 4 8 3 4 -4 -3 -6 13 -26 38 -45 25 -19 42 -38 38 -42 -4 -5 2 -5
13 -1 11 4 16 4 13 0 -8 -8 14 -34 25 -27 4 2 7 -1 7 -6 0 -6 5 -11 10 -11 6
0 24 -13 42 -30 17 -16 37 -30 44 -30 7 0 14 -3 16 -7 1 -5 21 -21 42 -37 22
-16 36 -24 31 -16 -5 7 4 5 18 -6 15 -10 27 -22 27 -26 0 -5 9 -8 20 -8 11 0
20 -4 20 -8 0 -4 14 -16 30 -25 16 -10 30 -15 30 -10 0 4 7 -3 16 -15 12 -17
19 -20 29 -12 9 8 14 6 19 -5 3 -9 10 -14 15 -11 5 3 12 -1 15 -10 3 -8 10
-12 16 -9 5 3 10 2 10 -2 0 -5 10 -10 22 -10 13 -1 24 -7 26 -13 2 -5 10 -10
18 -10 7 0 30 -9 49 -20 21 -12 34 -15 30 -8 -4 7 -1 6 7 -3 7 -9 19 -14 26
-12 6 3 12 1 12 -4 0 -5 10 -9 22 -10 11 -1 25 -8 29 -15 5 -7 9 -10 9 -5 0 4
16 0 36 -8 20 -8 40 -13 44 -10 4 3 13 -2 20 -10 10 -12 16 -13 28 -3 13 10
14 10 8 1 -5 -9 0 -13 13 -13 12 0 22 1 24 3 2 1 15 -6 30 -16 17 -11 27 -13
27 -6 0 8 4 8 15 -1 9 -7 18 -10 22 -7 3 4 11 3 17 -2 6 -5 34 -12 61 -16 28
-4 59 -9 70 -10 11 -2 22 -4 25 -5 3 -1 10 -3 15 -5 6 -1 12 -3 15 -4 14 -7
40 -8 36 -3 -2 4 6 7 19 7 17 0 21 -3 13 -12 -7 -9 -3 -10 21 -3 17 5 31 6 31
2 0 -4 31 -7 70 -6 48 1 67 -2 63 -10 -4 -6 0 -5 9 2 13 10 17 10 22 0 5 -10
7 -10 12 0 3 6 10 12 15 12 6 0 8 -3 6 -8 -3 -4 6 -8 19 -8 13 -1 21 2 18 7
-7 13 19 7 28 -6 5 -6 8 -4 8 5 0 13 1 13 10 0 9 -13 10 -13 10 0 0 13 1 13
10 0 9 -13 10 -13 10 0 0 13 1 13 10 0 9 -13 10 -13 10 0 0 13 1 13 10 0 7
-10 13 -11 18 -4 4 5 28 10 55 11 94 2 99 2 91 16 -5 7 -1 7 10 -2 15 -13 19
-13 28 0 7 11 11 11 15 1 4 -9 8 -10 18 -2 7 6 17 10 21 9 5 -1 22 -1 37 0 20
1 26 5 21 13 -6 10 -4 10 8 0 10 -8 19 -9 22 -3 3 5 17 8 31 6 14 -1 25 1 25
5 0 5 8 7 18 5 9 -1 23 3 31 9 12 9 13 8 7 -4 -4 -8 0 -6 8 4 12 15 16 16 16
5 0 -12 2 -12 10 1 5 8 10 11 10 6 0 -5 8 -2 17 5 9 8 14 9 10 2 -5 -7 0 -9
13 -6 11 3 18 9 15 13 -3 4 9 6 25 5 19 -2 27 1 23 8 -4 6 0 8 10 4 9 -3 19
-2 22 4 4 5 10 7 15 4 5 -3 12 0 15 6 4 5 13 8 21 5 9 -3 14 1 14 11 0 13 3
14 11 6 15 -15 39 -5 39 16 0 14 2 14 10 1 7 -11 12 -12 18 -4 4 6 22 15 40
19 18 3 30 10 27 15 -3 4 2 10 10 14 8 3 17 0 21 -6 5 -7 11 -5 20 6 7 10 17
15 23 12 5 -4 14 2 20 11 6 10 11 15 11 10 0 -9 102 43 112 57 4 6 8 7 8 3 0
-5 13 1 29 12 15 11 31 18 35 14 3 -3 6 -1 6 5 0 7 7 12 15 12 8 0 15 5 15 11
0 5 4 8 9 5 4 -3 16 3 26 14 10 11 24 20 32 20 7 0 16 7 19 15 4 8 10 13 14
10 4 -2 15 4 25 15 10 11 22 17 26 14 5 -3 12 2 15 10 3 9 12 16 20 16 8 0 14
7 14 15 0 13 14 20 23 13 1 -2 17 11 34 29 17 17 34 29 37 26 3 -4 6 0 6 7 0
7 3 11 6 7 3 -3 20 10 37 29 18 19 38 34 44 34 7 0 13 7 13 16 0 8 3 13 8 11
9 -6 33 19 25 27 -4 3 -1 6 6 6 16 0 41 25 41 40 0 6 5 8 10 5 6 -3 10 -2 10
4 0 5 9 13 20 16 11 4 18 10 15 15 -6 9 51 70 66 70 5 0 8 3 6 8 -2 8 16 32
46 60 9 9 17 21 17 27 0 15 37 45 45 37 4 -4 5 2 3 13 -2 12 2 19 10 18 6 -2
12 3 12 10 0 8 9 24 20 37 11 12 17 28 13 34 -3 6 -3 8 2 4 11 -10 58 59 50
72 -4 6 -1 9 7 8 7 -2 14 7 16 20 2 12 8 20 13 17 8 -6 13 8 10 28 -1 4 6 10
14 13 8 3 12 10 9 15 -3 5 0 9 6 9 6 0 8 5 5 10 -3 6 -2 10 2 10 5 0 14 14 20
31 8 21 16 28 25 23 10 -6 10 -4 -1 9 -8 11 -9 17 -2 17 6 0 13 11 17 25 3 14
11 25 17 25 6 0 7 3 4 6 -3 4 -1 16 5 28 7 11 13 23 13 26 0 3 6 15 13 26 6
12 8 24 5 28 -3 3 -1 6 6 6 7 0 9 5 6 10 -3 6 -1 10 5 10 6 0 8 5 5 10 -3 6
-2 10 4 10 5 0 8 8 6 18 -1 9 2 22 7 29 5 7 6 18 2 24 -4 8 -3 9 4 5 11 -6 16
6 13 27 0 4 3 7 8 7 6 0 8 9 6 20 -2 11 1 20 7 20 6 0 8 9 5 20 -3 11 -1 20 5
20 6 0 8 7 4 15 -3 8 -1 15 5 15 6 0 8 4 4 9 -3 5 -1 12 5 16 6 4 8 10 5 15
-3 5 -1 11 4 15 5 3 8 14 6 25 -2 11 0 20 6 20 5 0 9 5 9 11 0 5 -6 7 -12 3
-7 -4 -5 2 5 13 13 14 15 23 7 28 -8 5 -8 10 0 21 7 7 13 31 13 53 1 21 5 37
10 34 4 -2 8 12 8 31 1 35 4 53 9 59 1 1 3 20 5 42 1 22 4 58 5 80 2 22 8 46
14 54 8 11 8 13 -1 7 -8 -4 -13 -2 -13 8 0 8 5 18 10 21 8 5 7 12 -1 22 -10
12 -10 16 2 24 12 7 12 9 -1 9 -13 0 -13 1 0 11 12 8 12 12 2 16 -10 4 -10 8
0 21 10 12 10 14 1 8 -7 -4 -13 -2 -13 3 0 6 6 11 13 11 9 0 8 3 -2 9 -11 7
-11 10 0 15 11 5 11 7 1 12 -10 5 -10 9 0 22 10 12 10 14 1 8 -7 -4 -13 -2
-13 3 0 6 6 11 13 11 9 0 8 3 -2 9 -11 7 -11 9 0 14 11 3 11 7 2 17 -9 10 -9
19 -2 33 7 12 7 17 1 13 -9 -5 -13 25 -13 107 0 9 -5 17 -12 17 -6 0 -2 7 9
16 10 8 14 13 7 10 -6 -4 -14 -2 -18 4 -3 5 0 10 7 10 10 0 10 2 1 8 -6 4 -10
20 -9 35 2 15 -3 35 -10 44 -9 13 -9 22 -2 30 6 7 6 13 1 13 -5 0 -10 12 -11
28 -3 34 -7 53 -16 74 -4 9 -5 22 -1 28 3 5 2 10 -4 10 -5 0 -8 9 -6 20 2 11
1 20 -3 20 -7 0 -11 16 -14 58 -1 6 -5 12 -10 12 -5 0 -8 10 -6 23 2 13 -2 21
-9 20 -7 -2 -10 7 -7 22 2 13 0 27 -6 30 -6 4 -8 11 -5 16 4 5 2 9 -2 9 -5 0
-9 10 -10 22 -1 11 -6 24 -11 27 -5 3 -8 14 -6 24 1 9 -2 17 -7 17 -5 0 -8 3
-7 8 1 4 -5 21 -12 37 -7 17 -13 33 -12 38 1 4 -2 7 -8 7 -5 0 -6 7 -3 17 4
11 3 14 -5 9 -8 -5 -12 0 -12 13 0 12 -4 21 -10 21 -5 0 -7 6 -4 13 3 8 -2 20
-11 27 -8 7 -15 19 -15 26 0 8 -5 14 -11 14 -5 0 -8 4 -5 8 3 5 -6 25 -19 45
-14 20 -25 43 -25 51 0 8 -7 19 -16 24 -8 5 -17 17 -18 28 -2 10 -9 18 -16 16
-6 -1 -9 2 -6 7 4 5 0 15 -7 23 -7 7 -20 29 -30 48 -9 19 -17 31 -17 25 0 -5
-10 6 -22 25 -12 19 -21 38 -20 43 1 4 -5 7 -14 7 -8 0 -12 5 -9 10 3 6 1 10
-4 10 -6 0 -11 7 -11 16 0 8 -4 13 -9 9 -5 -3 -12 4 -16 15 -3 11 -11 20 -16
20 -6 0 -8 4 -4 9 3 5 -4 12 -15 16 -11 4 -18 11 -15 16 4 5 3 9 -2 9 -4 0
-19 16 -32 35 -13 19 -30 35 -39 35 -8 0 -13 3 -9 6 6 7 -118 134 -131 134
-11 0 -52 47 -52 60 0 5 -7 7 -15 4 -9 -4 -15 0 -15 10 0 15 -12 21 -35 16 -5
-1 -7 2 -2 6 9 9 -21 44 -38 44 -7 0 -18 7 -25 15 -7 8 -17 12 -23 8 -6 -4 -8
0 -4 11 4 10 3 15 -3 11 -6 -3 -10 -1 -10 6 0 7 -3 10 -6 6 -4 -3 -12 -1 -20
6 -34 30 -44 37 -44 30 0 -4 -5 0 -11 10 -5 9 -17 17 -24 17 -8 0 -15 5 -15
11 0 5 -4 8 -9 4 -5 -3 -20 5 -33 17 -13 13 -30 24 -38 26 -8 2 -17 7 -20 11
-3 4 -20 14 -37 22 -18 8 -33 18 -33 24 0 5 -5 3 -10 -5 -7 -10 -10 -11 -10
-2 0 7 -11 17 -25 22 -14 5 -25 15 -25 22 0 9 -3 8 -10 -2 -5 -8 -10 -10 -10
-4 0 10 -24 23 -55 28 -5 1 -9 8 -7 16 3 11 0 11 -14 -1 -12 -9 -15 -9 -10 -1
4 6 2 13 -3 13 -6 1 -14 2 -18 4 -51 13 -63 18 -63 24 0 8 -9 10 -54 14 -13 1
-22 5 -19 10 4 6 -12 11 -29 8 -5 0 -8 4 -8 10 0 8 -6 7 -17 -2 -9 -8 -14 -9
-11 -4 4 6 -5 15 -18 22 -18 8 -22 8 -17 0 3 -7 -3 -3 -15 7 -17 14 -22 16
-22 5 -1 -10 -5 -8 -15 5 -11 14 -15 16 -15 5 0 -8 -3 -10 -8 -4 -4 6 -14 12
-22 14 -30 7 -36 8 -75 16 -22 5 -46 8 -52 7 -7 -2 -13 2 -13 7 0 5 -12 8 -26
5 -16 -3 -23 -1 -19 6 3 5 0 7 -9 4 -8 -3 -24 0 -36 6 -15 8 -20 8 -16 1 9
-14 0 -14 -23 -1 -10 5 -37 10 -60 11 -23 2 -45 7 -48 11 -2 5 -11 3 -20 -3
-12 -10 -16 -10 -23 1 -7 12 -11 11 -26 -1 -10 -8 -15 -9 -11 -3 4 7 -7 11
-29 12 -19 1 -40 5 -46 8 -8 5 -9 1 -5 -12 6 -16 5 -17 -5 -4 -10 11 -29 15
-72 13 -36 -1 -66 3 -75 10 -12 10 -13 9 -7 -1z"/>
</g>
</svg>
